<?xml version="1.0" encoding="UTF-8" standalone="no"?>
<!-- Created with Inkscape (http://www.inkscape.org/) -->

<svg
   version="1.1"
   id="svg2"
   width="655.35999"
   height="655.35999"
   viewBox="0 0 655.35999 655.35999"
   xmlns="http://www.w3.org/2000/svg"
   xmlns:svg="http://www.w3.org/2000/svg">
  <defs
     id="defs6" />
  <g
     id="g8"
     transform="translate(-0.87689871,0.7703021)">
    <g
       id="g953"
       transform="translate(0.87689871,-0.7703021)">
      <path
         style="fill:#f1ebce;stroke-width:0.32"
         d="M 0,327.68 V 0 H 327.68 655.35999 V 327.68 655.35999 H 327.68 0 Z m 439.83999,169.75017 c 1.232,-0.0641 13.904,-0.27386 28.16,-0.46621 14.256,-0.19235 27.72,-0.41542 29.92,-0.49571 2.2,-0.0803 11.488,-0.2929 20.64,-0.47242 9.152,-0.17952 19.592,-0.46413 23.2,-0.63241 3.608,-0.16829 10.016,-0.46468 14.24,-0.65863 4.224,-0.19395 8.544,-0.48477 9.6,-0.6463 1.056,-0.16151 2.568,-0.30288 3.36,-0.31415 1.65082,-0.0234 3.68,-0.63241 3.68,-1.10435 0,-0.176 -0.936,-0.41593 -2.08,-0.53318 -1.144,-0.11728 -4.24,-0.43408 -6.88,-0.70403 -2.64,-0.26996 -7.464,-0.57828 -10.72,-0.68519 -3.256,-0.10688 -6.28,-0.252 -6.72,-0.32249 -0.44,-0.0705 -5.192,-0.21316 -10.56,-0.31709 -5.368,-0.10394 -15.736,-0.32224 -23.04,-0.48512 -7.304,-0.16288 -21.272,-0.38967 -31.04,-0.50397 -9.768,-0.11427 -17.88675,-0.324 -18.04169,-0.46605 -0.15492,-0.14201 0.27708,-0.35267 0.96,-0.46813 4.44819,-0.75187 15.69836,-4.35475 20.5182,-6.571 0.74608,-0.34308 1.42458,-0.62375 1.50775,-0.62375 0.0832,0 1.56077,-0.65904 3.28349,-1.46454 1.72275,-0.80551 3.85225,-1.7737 4.73225,-2.15155 5.3776,-2.309 15.51815,-8.60464 23.32397,-14.48048 2.09216,-1.57488 4.18989,-3.15143 4.66157,-3.50343 3.49581,-2.6087 14.70976,-13.34019 18.39133,-17.6 1.36896,-1.584 2.80729,-3.24 3.19625,-3.68 0.38896,-0.44 1.33607,-1.664 2.10467,-2.72 0.76861,-1.056 1.48884,-1.992 1.60052,-2.08 0.31772,-0.25033 4.82771,-6.63353 6.44368,-9.12 1.3007,-2.0014 3.0808,-4.9959 6.18819,-10.40995 1.30013,-2.26515 5.14041,-10.13014 6.16697,-12.63005 6.72442,-16.37532 10.11367,-30.7791 11.78397,-50.08 0.65987,-7.62499 0.48195,-17.172 -0.48281,-25.9078 -1.21373,-10.99046 -3.94407,-23.59601 -7.00301,-32.33219 -1.56826,-4.4788 -6.54845,-16.51817 -8.17021,-19.751 -5.94474,-11.8504 -14.46435,-24.5095 -21.80227,-32.39543 -5.54861,-5.96301 -7.28211,-7.76424 -8.54071,-8.87442 -0.76016,-0.67053 -1.45411,-1.29115 -1.54211,-1.37915 -2.93539,-2.93539 -10.84336,-9.38758 -14.26816,-11.6415 -1.21651,-0.80062 -3.65184,-2.43401 -5.41184,-3.62977 -12.74752,-8.66077 -29.70973,-16.05444 -45.12,-19.66741 -13.59164,-3.18659 -22.12649,-4.12365 -35.84,-3.93495 -9.33795,0.12848 -12.86464,0.45572 -23.74748,2.20348 -5.28922,0.84943 -19.1098,4.53607 -22.97252,6.12793 -1.49734,0.61707 -4.3512,1.75468 -5.76,2.29607 -1.59574,0.61323 -8.94627,3.99156 -11.52,5.29462 -2.58787,1.31022 -11.2456,6.48273 -12.64,7.55168 -0.616,0.47223 -1.552,1.12777 -2.08,1.45676 -0.96569,0.60172 -6.5014,4.67368 -7.47673,5.49975 -0.28781,0.24375 -2.17927,1.83729 -4.20327,3.54121 -2.024,1.70392 -4.4655,3.82795 -5.42556,4.72008 -1.43472,1.33318 -8.20039,8.50448 -11.04013,11.70205 -2.0345,2.29083 -7.66866,9.68503 -10.01072,13.13791 -1.85506,2.73489 -8.67517,14.64792 -10.32734,18.03927 -0.90641,1.86055 -1.75804,3.38282 -1.89253,3.38282 -0.13449,0 -0.48989,-0.27113 -0.78978,-0.60251 -0.2999,-0.33138 -1.22222,-0.85864 -2.0496,-1.17169 -0.82738,-0.31305 -1.79233,-0.75292 -2.14433,-0.9775 -0.53356,-0.34041 -3.3333,-1.23676 -6.08,-1.94654 -1.71855,-0.4441 -2.82709,-1.25001 -4.2248,-3.07143 -0.84003,-1.09469 -2.28698,-2.88823 -3.21546,-3.98564 l -1.68813,-1.99531 1.22686,-1.26421 c 1.70625,-1.75817 2.61959,-1.92671 4.13405,-0.76285 1.41718,1.08911 6.40951,3.69121 8.43516,4.39657 2.91396,1.01469 5.12269,0.49186 7.07846,-1.67556 1.47248,-1.63182 2.35434,-3.35503 2.57073,-5.02333 0.17604,-1.35717 3.1279,-7.92129 3.99112,-8.87513 0.28116,-0.31068 0.90277,-0.56487 1.38137,-0.56487 1.23602,0 3.59704,-0.8788 4.07622,-1.51723 0.31338,-0.41753 0.35673,-2.01017 0.19066,-7.00668 l -0.2149,-6.46632 1.08932,-1.69605 1.08934,-1.69604 0.16,-6.14329 c 0.088,-3.3788 0.232,-6.21243 0.32,-6.29695 0.088,-0.0845 0.89032,-0.70802 1.78295,-1.38556 3.15849,-2.39742 4.52409,-4.34587 5.39122,-7.69226 0.67847,-2.61829 0.60992,-4.67031 -0.23318,-6.97962 l -0.70099,-1.92 -2.4,-0.75515 c -1.32,-0.41533 -3.048,-1.02818 -3.84,-1.36188 -0.792,-0.33371 -3.024,-1.09649 -4.96,-1.69508 -1.936,-0.59859 -5.104,-1.79783 -7.04,-2.66497 -3.92895,-1.75979 -8.69687,-3.59208 -11.36,-4.3656 -3.91468,-1.13703 -10.5855,-1.54002 -14.45044,-0.87297 -3.02383,0.52189 -7.10789,2.93633 -8.7454,5.17016 -0.52572,0.71716 -1.64483,1.72786 -2.48691,2.246 -3.83092,2.35718 -5.90203,5.90673 -6.8965,11.81949 -0.19241,1.144 -0.42822,4.97383 -0.52401,8.51074 -0.0958,3.5369 -0.397,7.7129 -0.66933,9.28 -1.33683,7.69255 -5.66906,11.77005 -16.14741,15.19797 -7.54105,2.467 -12.52187,4.75386 -16.65334,7.64611 -1.48867,1.04215 -3.42666,2.32698 -4.30666,2.85519 -2.73066,1.63904 -7.6191,7.04066 -10.82911,11.96594 -3.30741,5.07471 -7.79637,14.67488 -9.63198,20.59912 -2.57402,8.30735 -3.06208,9.94626 -3.55714,11.94493 -1.69038,6.82447 -3.45306,11.06393 -6.48905,15.60695 -1.02659,1.53617 -2.61291,3.90489 -3.52515,5.26381 -0.91224,1.35892 -2.18903,2.87092 -2.83731,3.36 -0.64829,0.48908 -1.69364,1.43 -2.32301,2.0909 -0.62937,0.66093 -1.94567,1.81293 -2.9251,2.56 -6.14246,4.68528 -10.77823,9.29875 -12.94062,12.87833 -3.5145,5.81786 -5.16666,11.904 -5.88397,21.67511 -0.25184,3.43049 -0.25406,3.43747 -1.65487,5.20425 -0.77148,0.97306 -2.12269,2.81773 -3.00269,4.09933 -0.88,1.28157 -2.25307,3.18765 -3.05127,4.23571 -1.78925,2.34938 -2.02993,2.69268 -4.81356,6.8656 -2.02894,3.04157 -2.22279,3.47069 -2.04554,4.52797 0.10769,0.64237 0.0437,1.43437 -0.14214,1.76 -0.18587,0.32563 -0.85664,1.88803 -1.49061,3.47203 -0.63397,1.584 -1.52232,3.672 -1.97412,4.64 -0.45179,0.968 -1.36744,2.94538 -2.03477,4.39418 -1.60525,3.48506 -1.95826,3.6831 -7.77957,4.36458 -2.53429,0.2967 -5.23343,0.73494 -5.99811,0.97388 -0.76467,0.23895 -2.32631,0.6954 -3.47031,1.01434 -3.11398,0.86813 -6.00182,2.12218 -8.26595,3.5895 -2.46755,1.59911 -5.97261,4.66317 -6.89516,6.02756 -4.33763,6.41516 -5.70452,8.37257 -7.57591,10.84886 -2.571785,3.40304 -7.856367,8.86922 -11.022981,11.40176 -2.678986,2.14253 -7.315971,4.84442 -9.571626,5.57722 -2.346077,0.76214 -7.982614,3.59872 -9.286166,4.67321 -1.454896,1.19927 -3.04745,4.46387 -3.280877,6.72557 -0.236547,2.29194 0.413744,4.39283 2.850135,9.20787 2.551961,5.04346 2.997087,6.34397 4.436409,12.96147 1.847872,8.49591 2.268838,9.64845 4.486163,12.28266 1.03728,1.23229 1.885962,2.3063 1.885962,2.38672 0,0.0804 -1.836,0.24025 -4.08,0.35523 -13.39248,0.68614 -21.45632,1.34368 -21.954355,1.79014 -0.534243,0.47895 1.243469,1.04164 4.10023,1.29783 3.921575,0.35165 18.858774,1.15136 25.934125,1.38841 3.168,0.10615 7.632,0.26208 9.92,0.34653 2.288,0.0844 12.512001,0.29511 22.720001,0.46819 10.208,0.17306 22.088,0.38826 26.4,0.47821 22.62154,0.47181 53.14068,0.87533 85.92,1.13603 28.24423,0.22464 204.41209,0.0733 209.27999,-0.17977 z m -327.65024,-9.53623 c 0.37599,-3.66988 -1.15127,-5.64441 -5.51044,-7.12416 -3.20141,-1.08675 -5.59384,-3.38403 -6.1824,-5.93654 -0.610457,-2.64742 -0.17943,-12.54768 0.58917,-13.53277 0.14612,-0.18726 0.3624,-0.74499 0.48064,-1.23939 0.40751,-1.70406 4.96543,-5.9088 9.15328,-8.44403 1.144,-0.69254 5.824,-3.18509 10.4,-5.53894 4.576,-2.35389 10.48,-5.41159 13.12,-6.79485 7.32345,-3.83725 13.64556,-6.85443 14.88455,-7.10355 1.42066,-0.2857 5.58726,-1.59578 8.45402,-2.65821 3.49668,-1.29591 4.80053,-2.35277 9.85255,-7.98621 0.65512,-0.73053 2.88712,-2.62464 4.96,-4.20918 2.07288,-1.58452 4.92088,-3.9168 6.32888,-5.18282 3.88326,-3.49171 4.63841,-4.02365 4.96403,-3.49677 0.34265,0.55443 1.94848,-1.13097 5.18936,-5.44653 1.25563,-1.672 2.65279,-3.52806 3.10479,-4.1246 2.02495,-2.67248 2.65962,-3.53284 4.15718,-5.6354 0.87751,-1.232 2.54471,-3.536 3.7049,-5.12 2.07115,-2.82774 6.78158,-9.79516 8.11275,-12 l 0.67621,-1.12 0.005,0.96736 c 0.003,0.58586 -0.72391,2.28957 -1.84386,4.32 -1.01709,1.84397 -2.128,4.00064 -2.46869,4.79264 -0.3407,0.792 -1.30853,2.60256 -2.15075,4.02346 -0.84222,1.42093 -1.53131,2.73322 -1.53131,2.91622 0,0.85658 13.35732,11.97316 15.63169,13.00944 0.62149,0.28317 0.83581,0.23972 1.18701,-0.24057 0.55847,-0.76375 1.35427,-0.55674 4.31994,1.12381 1.27758,0.72396 2.84004,1.49856 3.47212,1.72131 l 1.14924,0.40499 -2.24,1.04819 c -1.232,0.57651 -2.816,1.28243 -3.52,1.56874 -4.01109,1.63113 -9.20772,6.01395 -11.79097,9.94441 -5.92953,9.02192 -9.1573,12.82932 -13.29292,15.68 -0.63833,0.44 -2.16758,1.59824 -3.39835,2.57386 -4.86674,3.85782 -7.42428,5.41101 -12.45923,7.5665 -4.17798,1.78857 -6.12114,3.13244 -7.53066,5.20806 -1.58257,2.33043 -2.04787,4.15914 -1.86445,7.32755 0.12547,2.16746 0.29653,2.74493 1.30042,4.38989 1.21186,1.98576 3.11026,3.95309 5.89639,6.11049 3.2262,2.49821 6.47903,5.75165 7.58227,7.58378 0.61423,1.02003 1.55571,3.06765 2.09219,4.55027 1.20893,3.34106 2,4.91123 2.87126,5.6992 0.37073,0.33527 0.67405,0.71523 0.67405,0.84439 0,0.31558 -10.60444,0.57808 -31.84,0.78809 -9.68,0.0958 -19.90399,0.24003 -22.71999,0.32064 -2.816,0.0806 -9.40927,0.23322 -14.65171,0.33917 l -9.53171,0.19267 0.21317,-2.08061 z m -23.709767,1.36877 c -0.52801,-0.15376 -1.554932,-0.82477 -2.282055,-1.49113 -2.504825,-2.29556 -4.242848,-6.57226 -4.913932,-12.09159 -0.744493,-6.12304 -1.850784,-9.61027 -4.517536,-14.24 -2.606621,-4.52534 -3.267626,-6.24092 -3.072295,-7.97388 0.13384,-1.18743 0.389069,-1.64756 1.394826,-2.5145 1.586867,-1.3679 3.786131,-2.50554 5.751789,-2.97526 1.82024,-0.43498 7.14527,-3.00583 9.701846,-4.68388 2.116595,-1.38931 7.200589,-5.66249 9.498454,-7.98364 4.28074,-4.32413 7.01145,-7.87383 9.83625,-12.78628 2.89193,-5.02921 7.53669,-9.02044 12.97985,-11.1536 3.43694,-1.34694 17.11274,-4.30569 17.60877,-3.80966 0.0905,0.0905 -0.19121,0.43277 -0.62595,0.7607 -0.43474,0.32794 -0.69819,0.68848 -0.58545,0.80122 0.31658,0.31658 3.83791,-2.23066 4.83179,-3.4952 0.94075,-1.19696 3.60846,-6.29565 4.07112,-7.78099 0.59212,-1.90096 2.8805,-7.57098 3.1741,-7.86458 0.20033,-0.20035 1.10064,0.35754 2.54121,1.57466 6.40649,5.41273 10.88954,8.51699 18.76683,12.99501 1.05578,0.60019 1.95253,1.29795 1.99277,1.55056 0.0806,0.50579 -3.33117,2.7472 -5.77829,3.79616 -0.84081,0.36038 -2.85294,1.10771 -4.47141,1.66067 -1.61847,0.55296 -4.23867,1.67072 -5.82267,2.48393 l -2.88,1.47856 3.2,0.16208 c 1.76,0.0892 3.38,0.27764 3.6,0.41888 0.76473,0.49098 0.38753,1.28061 -1.75562,3.6752 -2.18495,2.44132 -4.3162,4.02324 -6.65068,4.93648 -1.52025,0.59472 -7.7786,1.68912 -8.05852,1.40922 -0.10668,-0.10669 0.26192,-1.22608 0.8191,-2.48758 0.55719,-1.26148 0.93289,-2.37376 0.8349,-2.47175 -0.098,-0.098 -1.44751,1.11235 -2.99892,2.68963 -3.08695,3.13847 -3.18603,3.22573 -6.71757,5.9153 -2.41886,1.84214 -3.31385,2.33904 -15.55269,8.63462 -3.52,1.81066 -6.76,3.53447 -7.2,3.83069 -0.65759,0.44269 -3.28131,1.88227 -7.84545,4.30467 -3.03074,1.60855 -9.188049,7.77258 -10.464878,10.47632 -1.865277,3.94979 -2.009673,4.90109 -2.009673,13.24 0,8.5753 -0.138791,7.96643 2.476867,10.86624 1.646352,1.82522 5.430514,3.94119 7.558874,4.22666 2.0094,0.2695 2.94856,1.94333 1.75826,3.13363 -0.81702,0.81702 -1.6581,0.38666 -4.36079,-2.23139 -2.36718,-2.29303 -3.433212,-2.91146 -3.433212,-1.99168 0,0.22947 0.494362,0.89638 1.09858,1.48201 1.429022,1.38506 2.007262,2.72308 1.461182,3.38106 -0.21897,0.26384 -0.59063,0.47971 -0.82591,0.47971 -0.23528,0 -1.62165,-1.15021 -3.080818,-2.556 -1.459168,-1.40579 -2.833033,-2.55779 -3.053033,-2.56 -0.730388,-0.007 -0.415037,0.77984 0.88,2.19658 1.441641,1.57715 1.3956,1.4655 0.948742,2.30045 -0.6192,1.15699 -1.755821,0.75632 -3.410301,-1.20215 -2.515693,-2.97792 -2.993225,-3.41209 -3.354957,-3.05037 -0.434156,0.43415 -0.128272,1.3017 0.86505,2.45344 0.446816,0.51808 0.735683,1.14186 0.64193,1.38618 -0.09376,0.24432 -0.170464,0.57645 -0.170464,0.73805 0,0.35619 -1.095792,0.33635 -2.400016,-0.0435 z m -1.292256,-32.41417 c 0.592057,-0.43293 0.412572,-1.35482 -0.19113,-0.98173 -0.501072,0.3097 -1.215213,-0.87978 -1.226422,-2.04272 -0.01533,-1.59043 0.65991,-2.60486 3.532704,-5.30739 1.439801,-1.35447 2.538518,-2.54199 2.441587,-2.63891 -0.306624,-0.30663 -1.406279,0.19363 -2.676384,1.21753 -0.675447,0.54451 -1.961261,1.31891 -2.85737,1.7209 -2.404816,1.07872 -3.330713,2.33229 -3.330713,4.50937 0,2.64688 0.887491,3.92496 2.738838,3.94423 0.538362,0.005 1.244362,-0.18397 1.56889,-0.42128 z m 20.035443,-20.98423 c 0.95526,-0.51462 3.35833,-1.59356 5.34015,-2.39763 5.02943,-2.04061 7.68735,-3.42713 11.75668,-6.13305 3.60715,-2.3986 9.1353,-7.24004 8.73842,-7.65293 -0.12187,-0.12679 -0.62587,0.0557 -1.12,0.40566 -1.68162,1.19075 -6.33007,3.6401 -9.3583,4.93107 -6.00467,2.55988 -9.163,4.46756 -13.30012,8.03354 -1.408,1.21363 -2.956,2.44067 -3.44,2.72678 -0.84812,0.50138 -1.16241,1.02224 -0.61683,1.02224 0.14475,0 1.04475,-0.42105 2,-0.93568 z M 202.08,487.8758 c -1.936,-0.40646 -4.13316,-1.05229 -4.88256,-1.4352 -1.91483,-0.9784 -3.31492,-3.07002 -5.22253,-7.80195 -1.71047,-4.24291 -4.10501,-8.05447 -6.33982,-10.09155 -0.6353,-0.57911 -2.12689,-1.69802 -3.31464,-2.4865 -3.34717,-2.22202 -5.56602,-4.60077 -5.85332,-6.27514 -0.31262,-1.82195 -0.21999,-4.11212 0.18612,-4.60143 0.50776,-0.61181 4.68232,-3.34404 5.10934,-3.34404 0.8471,0 7.20456,-3.38323 11.04855,-5.87971 4.4859,-2.91331 5.94553,-4.0112 9.43702,-7.09817 4.88268,-4.317 6.69746,-6.59034 10.5731,-13.2448 1.38173,-2.37242 5.42974,-6.29495 8.14423,-7.89178 2.46382,-1.44934 5.224,-2.36554 9.59451,-3.18461 2.26451,-0.42441 3.80322,-0.49488 7.2,-0.32979 2.376,0.11546 4.86,0.29296 5.52,0.39443 0.66,0.10144 1.19946,0.0607 1.1988,-0.0906 -6.4e-4,-0.15126 -0.90058,-0.99501 -1.99983,-1.87501 -1.09925,-0.88 -2.4799,-2.032 -3.06811,-2.56 -1.02291,-0.91817 -3.94398,-3.01657 -9.49086,-6.81788 -3.76679,-2.58138 -3.65085,-2.31978 -1.69675,-3.82826 0.93321,-0.72038 2.11969,-1.75171 2.63662,-2.29184 0.51692,-0.5401 1.05354,-0.98202 1.19247,-0.98202 0.13893,0 1.08399,0.79831 2.10013,1.77405 3.39827,3.26311 11.73218,9.10595 12.98822,9.10595 0.32363,0 -0.74697,-1.31872 -3.25855,-4.01382 -3.70019,-3.9705 -7.48849,-8.66141 -7.77947,-9.63296 -0.13377,-0.44666 4.2368,-3.94352 7.89733,-6.31866 1.584,-1.02774 3.92743,-2.57571 5.20763,-3.43987 l 2.32763,-1.5712 0.79798,0.86106 c 3.68558,3.9768 9.28476,15.54969 12.20937,25.23545 1.36971,4.5362 1.51783,5.5241 1.08277,7.2216 -0.48823,1.90496 -1.70365,4.24349 -2.87499,5.53156 -0.91221,1.00313 -3.69005,2.88492 -4.75982,3.22444 -0.65581,0.20816 -0.67857,0.12231 -0.67857,-2.55843 0,-1.52563 -0.0659,-2.83971 -0.1464,-2.92022 -0.0805,-0.0805 -0.37478,0.62029 -0.65391,1.55731 -0.80223,2.69309 -3.43167,6.18499 -6.01179,7.98368 -4.25038,2.96304 -6.77583,4.3353 -16.4199,8.92202 -9.09829,4.32713 -20.74042,10.10998 -23.35116,11.59897 -7.96589,4.54314 -11.20492,7.76957 -12.01928,11.97248 -0.33661,1.73725 -0.30083,2.34413 0.29897,5.07142 0.37473,1.70394 0.88758,4.55991 1.13964,6.34663 0.99638,7.06249 2.5191,9.74368 6.80116,11.97533 1.44241,0.75174 3.52888,1.54963 4.63661,1.77312 1.62121,0.3271 2.03267,0.53408 2.1095,1.06121 0.17812,1.22221 -0.74552,1.55264 -4.54372,1.62554 -2.68766,0.0516 -4.40807,-0.11165 -7.07172,-0.67085 z m -12.3139,-28.84317 c 0.32958,-0.39712 0.29991,-0.7192 -0.16025,-1.73964 -0.85947,-1.90599 -0.48031,-3.06679 1.92099,-5.88109 2.75214,-3.22551 2.71529,-3.51232 -0.22558,-1.75578 -4.23129,2.5273 -4.53423,2.85645 -4.9348,5.36147 -0.46116,2.88397 1.96263,5.74653 3.39964,4.01504 z m 19.0499,-21.85868 c 0.64387,-0.56352 3.04039,-1.01396 5.39461,-1.01396 1.351,0 3.55304,-0.22652 4.89342,-0.50339 3.65486,-0.75491 8.89904,-2.96336 10.39334,-4.37683 0.23244,-0.21987 1.21463,-0.9936 2.18263,-1.71939 2.50879,-1.88103 6.27973,-5.4656 6.02194,-5.72432 -0.11993,-0.12035 -1.39546,0.44329 -2.83451,1.25254 -1.43905,0.80928 -2.67273,1.47139 -2.74151,1.47139 -0.0688,0 -1.38525,0.56692 -2.92549,1.25981 -1.54024,0.6929 -4.84542,1.83731 -7.34484,2.54311 -2.49943,0.70582 -5.66743,1.80172 -7.04,2.43532 -2.57097,1.18682 -7.08044,3.97639 -7.1157,4.40176 -0.0268,0.32324 0.73738,0.30541 1.11611,-0.0259 z m 9.42398,49.77967 c 3e-5,-2.96316 -1.42129,-4.31545 -6.6586,-6.33516 -2.57246,-0.99207 -4.82859,-2.69328 -5.71758,-4.31133 -0.66375,-1.2081 -1.45882,-5.82515 -1.93267,-11.22327 -0.26342,-3.00089 0.47739,-4.84265 2.73021,-6.78777 1.00026,-0.86362 2.63092,-2.0879 3.62369,-2.72061 1.85828,-1.18435 13.31992,-6.84365 15.31497,-7.56192 0.616,-0.22176 1.984,-0.8088 3.04,-1.30451 4.64736,-2.18157 7.57034,-3.50906 7.72654,-3.50906 0.29317,0 11.06069,-5.36976 13.23346,-6.59952 1.144,-0.64752 3.016,-1.75097 4.16,-2.45216 1.144,-0.70121 3.592,-2.16857 5.44,-3.26083 7.64657,-4.51949 8.77045,-5.45689 10.36936,-8.64886 2.80426,-5.59824 2.81762,-9.59552 0.0596,-17.83683 -1.95832,-5.85178 -5.54417,-13.93072 -7.70605,-17.3618 -0.44358,-0.704 -1.11398,-1.856 -1.48977,-2.56 -2.95783,-5.54115 -12.95165,-17.02009 -20.57399,-23.63132 -6.71546,-5.82468 -7.53918,-6.64535 -7.53918,-7.5113 0,-0.52035 0.69469,-1.87853 1.74942,-3.42022 1.78736,-2.61258 4.71139,-6.53108 5.18642,-6.95028 0.14529,-0.12819 1.84816,-1.48438 3.78416,-3.01369 1.936,-1.52931 3.7087,-3.04519 3.93934,-3.36861 0.23063,-0.32339 1.45463,-1.35546 2.72,-2.29344 2.75708,-2.04378 6.70633,-5.97235 7.35947,-7.32096 0.44149,-0.91158 1.75619,-1.60947 4.54119,-2.41069 1.03679,-0.29827 5.02258,-3.11299 6.29746,-4.44723 0.6476,-0.67774 1.74514,-2.16825 2.43898,-3.31225 1.21353,-2.00087 1.30874,-2.07895 2.50254,-2.0522 0.68256,0.0153 2.46192,0.41355 3.95414,0.88501 1.63557,0.51675 4.08688,0.97775 6.17201,1.16073 1.90239,0.16694 3.56961,0.37196 3.70493,0.45559 0.13532,0.0836 -0.003,2.06879 -0.30604,4.41147 -0.80013,6.17306 -1.24402,12.58429 -1.24402,17.96752 0,3.48173 -0.10444,4.74845 -0.4,4.85168 -0.22,0.0768 -2.848,0.3624 -5.84,0.63456 -12.46291,1.13376 -32.25654,3.74003 -32.91069,4.33344 -1.41763,1.28602 35.84199,1.82371 82.67068,1.19299 9.768,-0.13155 25.94762,-0.32595 35.95472,-0.432 10.00711,-0.10601 18.57511,-0.24038 19.04,-0.29856 0.4649,-0.0582 2.86128,-0.1351 5.32528,-0.17094 4.74762,-0.069 5.90784,0.17504 7.77869,1.63648 3.15245,2.46253 3.04416,7.13536 -0.21776,9.39587 -2.6944,1.8672 0.77719,1.75907 -56.96569,1.77431 l -53.24477,0.0141 0.17841,1.68 c 0.0981,0.924 0.2702,1.91251 0.38238,2.19667 0.23317,0.59065 0.31336,0.57907 -9.75125,1.4111 -6.3484,0.52487 -17.2133,1.89885 -17.53154,2.21709 -0.0963,0.0963 -0.11513,0.23331 -0.0418,0.30442 0.36882,0.35766 13.17313,1.53916 19.49334,1.79875 7.03053,0.28877 29.36743,0.76992 52.15999,1.12358 13.42215,0.20826 16.64,0.61114 16.64,2.08327 0,1.26944 -1.08934,1.44931 -10.72,1.77014 -3.344,0.11142 -6.152,0.2425 -6.24,0.29126 -0.088,0.0488 -4.11999,0.18538 -8.95999,0.30352 -4.84,0.11815 -11.536,0.34964 -14.88,0.51444 -3.344,0.1648 -7.736,0.30227 -9.76,0.30547 -2.024,0.003 -4.41415,0.0941 -5.31144,0.20189 l -1.63143,0.19603 0.25504,1.36515 c 0.14027,0.75085 0.61599,2.49738 1.05715,3.88118 1.31358,4.12032 1.32447,4.22432 0.46187,4.40906 -4.11236,0.8807 -5.85571,1.28982 -7.63119,1.79088 -1.144,0.32282 -2.692,0.74755 -3.44,0.94387 -0.748,0.19629 -1.36,0.47667 -1.36,0.62311 0,0.24342 3.70349,0.70924 8.96,1.12694 1.144,0.0909 4.744,0.24819 8,0.3495 9.25195,0.28784 14.95478,0.49543 26.56,0.96669 2.2,0.0894 8.46399,0.30061 13.91999,0.46947 27.46868,0.85018 51.4746,1.92445 51.87143,2.32128 0.3208,0.3208 -8.55437,0.84439 -31.23143,1.84244 -3.432,0.15104 -7.968,0.36041 -10.08,0.46524 -7.22176,0.3585 -34.87013,1.43943 -42.31999,1.65456 -6.95479,0.20084 -7.44,0.25354 -7.44,0.80826 0,0.32637 0.1402,0.84346 0.31155,1.14909 0.17136,0.3056 1.69608,3.36365 3.38828,6.79565 1.69219,3.432 3.25647,6.456 3.47618,6.72 0.21971,0.264 0.91318,1.43184 1.54104,2.5952 2.77871,5.14857 8.79725,13.57516 14.83747,20.77398 2.61712,3.11914 9.76397,10.39446 13.16643,13.40317 2.06436,1.82544 2.45399,2.37632 1.73239,2.44918 -0.11735,0.0118 -2.08535,0.12771 -4.37335,0.25747 -2.288,0.12973 -8.62399,0.51805 -14.07999,0.86292 -21.45917,1.35638 -25.2459,1.59168 -33.12,2.05801 -8.23486,0.48771 -20.24801,1.31859 -23.2,1.60464 -0.88,0.0852 -3.17702,0.29933 -5.10449,0.47571 -3.28335,0.30045 -4.74785,0.73434 -3.66902,1.08698 0.44967,0.14697 6.76835,0.57862 16.93351,1.15673 2.904,0.16519 6.432,0.37821 7.84,0.47341 1.408,0.0952 5.872,0.3168 9.92,0.49239 4.048,0.17561 11.896,0.53228 17.44,0.79257 5.544,0.26029 13.248,0.6177 17.12,0.79427 3.872,0.17655 9.91999,0.46295 13.43999,0.63642 3.52,0.1735 8.488,0.31814 11.04,0.32144 l 4.64,0.006 2.56,1.54579 c 1.408,0.85018 4.144,2.52019 6.08,3.71117 3.48093,2.14134 11.66311,6.2441 16,8.02278 1.232,0.50528 2.384,1.02148 2.56,1.14708 0.4601,0.32832 5.90221,2.39084 7.04,2.66812 0.528,0.12868 1.392,0.42512 1.92,0.65882 1.27184,0.56291 6.73677,2.1744 9.84,2.90163 1.364,0.31962 2.47997,0.66282 2.47994,0.76263 -3e-5,0.0998 -40.82403,0.1815 -90.72,0.1815 h -90.71996 l 1e-5,-1.52637 z m 90.89449,-39.99363 c 1.58774,-0.90636 1.95874,-2.26182 1.04657,-3.82371 -1.02813,-1.76038 -2.32723,-2.04163 -7.25903,-1.57145 -5.9787,0.56998 -11.20758,1.18204 -16.53754,1.9358 -2.54346,0.35968 -5.26951,0.74096 -6.05788,0.8473 -1.25156,0.16877 -1.36338,0.24451 -0.88138,0.59696 0.30361,0.22198 1.45265,0.49885 2.55341,0.6152 12.96678,1.37056 20.1903,2.0031 23.69798,2.07517 1.72577,0.0354 2.43784,-0.10439 3.43787,-0.67527 z M 226.88,345.06003 c 0,-0.97552 1.89091,-4.95578 2.24917,-4.73437 0.45733,0.28265 0.37818,1.97667 -0.13877,2.97024 -0.24728,0.47523 -0.82328,1.21318 -1.28,1.63987 -0.79461,0.74234 -0.8304,0.74771 -0.8304,0.12426 z m -6.93781,-5.94004 c 0.0645,-6.87225 0.23286,-6.15552 -2.68728,-11.43999 l -1.32621,-2.4 0.19882,1.44 c 0.54657,3.95855 0.55892,5.33891 0.0648,7.24051 -0.28017,1.07827 -0.64528,3.27379 -0.81134,4.87894 -0.32183,3.11066 -0.46203,3.56054 -1.10961,3.56054 -0.22596,0 -2.70146,-1.71961 -5.50112,-3.82137 -2.79966,-2.10176 -5.88228,-4.41075 -6.85028,-5.13104 -2.83011,-2.10595 -7.07182,-5.30816 -8.8,-6.64346 -0.88,-0.67993 -1.64446,-1.54112 -1.69879,-1.91376 -0.11682,-0.80112 1.10388,-3.19299 2.65915,-5.21036 0.61057,-0.792 1.68155,-2.25021 2.37995,-3.24046 1.6766,-2.37722 3.06152,-3.73249 3.94204,-3.85764 0.57284,-0.0814 0.76925,-0.39131 0.9773,-1.5419 0.14321,-0.792 0.60181,-2.952 1.01912,-4.8 0.41731,-1.848 0.92625,-4.152 1.13097,-5.12 0.7123,-3.36793 3.4009,-12.25137 5.66568,-18.72 1.21825,-3.47957 3.13568,-7.52254 4.59848,-9.69605 0.50935,-0.75682 0.9261,-1.43529 0.9261,-1.50772 0,-0.59738 5.03526,-7.47882 6.69795,-9.15375 1.70931,-1.72189 5.3671,-4.48803 7.18065,-5.43024 2.54027,-1.31977 4.84479,-2.25897 6.2814,-2.55997 2.2189,-0.4649 3.05705,-0.88322 2.62842,-1.31185 -0.21372,-0.21372 -1.07073,-0.20385 -2.57565,0.0296 -3.8341,0.59488 -4.12265,0.41486 -1.7322,-1.08065 0.83568,-0.52282 1.70971,-1.13482 1.94228,-1.36 0.23257,-0.22518 0.57081,-0.40942 0.75164,-0.40942 0.18083,0 0.78255,-0.21146 1.33714,-0.4699 0.5546,-0.25846 2.59237,-0.99457 4.52837,-1.63581 1.936,-0.64125 4.096,-1.44658 4.8,-1.78964 0.704,-0.34306 2.216,-0.93498 3.36,-1.31539 1.144,-0.38041 2.7643,-1.12761 3.60068,-1.66045 0.83638,-0.53284 2.18833,-1.38909 3.00433,-1.90277 0.81601,-0.51367 2.83531,-2.22615 4.48734,-3.8055 l 3.00368,-2.87154 2.79199,-0.272 c 1.53559,-0.1496 3.90544,-0.18275 5.26635,-0.0737 3.03248,0.24307 3.15821,0.0688 2.16041,-2.99415 -1.24482,-3.82122 -0.38656,-8.72985 1.77389,-10.14544 0.42285,-0.27705 1.42922,-0.50374 2.23638,-0.50374 1.285,0 1.6058,0.14929 2.57866,1.2 1.13631,1.22725 1.90382,3.2559 2.19063,5.79015 0.21016,1.85699 0.63648,2.28985 2.25524,2.28985 1.2679,0 2.0826,-0.47906 2.44888,-1.44 0.40239,-1.05571 2.32285,-3.99473 3.07448,-4.70511 0.48788,-0.4611 1.78706,-1.29233 2.88706,-1.84717 1.90632,-0.96154 2.14889,-1.22424 2.01945,-2.18699 -0.031,-0.2306 0.0838,-0.8786 0.25514,-1.44 0.17134,-0.5614 0.39887,-1.54319 0.50565,-2.18176 0.26137,-1.56309 1.48135,-2.83897 2.71462,-2.83897 0.53098,0 2.89507,0.648 5.25353,1.44 2.35846,0.792 4.52977,1.44 4.82514,1.44 0.29536,0 0.89015,0.38103 1.32175,0.84673 0.76364,0.82399 0.78404,0.97652 0.75956,5.68 -0.0248,4.77236 -0.0369,4.85142 -0.95489,6.27327 -1.78764,2.76872 -1.74339,2.44032 -1.1339,8.41421 0.30896,3.02818 0.58698,5.86579 0.61784,6.30579 0.0552,0.78741 0.0108,0.80252 -2.82108,0.96 l -2.87718,0.16 -0.20742,1.45801 c -0.11408,0.80191 -1.07169,3.25964 -2.12802,5.46163 -1.05632,2.20199 -2.0881,4.81054 -2.29284,5.79677 -0.32756,1.57785 -0.49116,1.8346 -1.36256,2.13837 -0.54466,0.18987 -1.32029,0.34522 -1.7236,0.34522 -1.41953,0 -6.04318,-2.48598 -8.86466,-4.76623 -1.5474,-1.25056 -2.89387,-2.27375 -2.99214,-2.27375 -0.54172,0 -5.18804,-4.58162 -6.16585,-6.08 -1.1005,-1.68637 -1.15524,-1.9062 -1.30854,-5.25447 -0.0968,-2.11406 -0.29854,-3.54021 -0.51071,-3.61024 -0.49787,-0.16434 -1.80869,1.96857 -2.59636,4.22471 -0.86136,2.46718 -1.20617,8.20519 -0.73882,12.29468 0.22884,2.0024 0.23747,3.12174 0.0257,3.3335 -0.21177,0.21178 -0.38522,0.14583 -0.51654,-0.19639 -0.10874,-0.28337 -1.25366,-1.31 -2.54426,-2.28138 -2.16916,-1.63264 -2.38733,-1.90616 -2.88605,-3.61828 -0.29673,-1.01867 -0.69395,-2.68013 -0.88271,-3.69213 -0.18877,-1.012 -0.45622,-1.84 -0.59433,-1.84 -0.29897,0 -1.05961,2.46753 -1.58704,5.1484 -0.31023,1.57686 -0.47209,1.88504 -0.89385,1.70185 -0.28327,-0.12304 -1.48822,-0.33804 -2.67767,-0.47777 -1.18945,-0.13974 -2.80945,-0.35106 -3.6,-0.46961 -1.88527,-0.28271 -1.88942,0.26721 -0.008,1.09932 0.78599,0.34768 1.61399,0.78752 1.84,0.97743 1.44573,1.21476 5.51196,3.9125 7.13094,4.73101 4.07573,2.06058 8.59163,5.79499 10.67977,8.83162 1.67329,2.43333 3.91826,7.26509 5.93534,12.77444 0.30541,0.83418 0.68917,1.59943 0.8528,1.70055 0.54037,0.33398 0.82503,-1.20206 0.54899,-2.96239 -0.1494,-0.95268 -0.19872,-1.85011 -0.10962,-1.99429 0.17828,-0.28845 5.87912,0.66847 7.31161,1.22729 2.85562,1.11401 8.52779,4.2816 9.18111,5.12713 0.088,0.1139 0.57358,0.52467 1.07906,0.91283 1.38404,1.0628 4.66341,4.87303 5.35293,6.21944 0.82176,1.60465 0.80802,2.81275 -0.032,2.81275 -0.67505,0 -0.8611,0.46558 -0.31975,0.80016 0.17615,0.10886 1.79615,-0.52398 3.6,-1.40631 6.24175,-3.05307 9.38547,-3.72034 15.91975,-3.37904 12.42185,0.6488 19.29046,0.19472 24.93097,-1.64818 1.33597,-0.43649 3.14902,-0.89753 4.02902,-1.02453 1.6632,-0.24004 2.01584,-0.73486 0.73888,-1.03684 -0.63654,-0.15053 -0.66124,-0.20456 -0.17846,-0.39012 0.49962,-0.19201 0.55536,-0.6938 0.51386,-4.62526 -0.0396,-3.75187 0.0522,-4.6725 0.61504,-6.16988 0.36387,-0.968 1.10003,-2.95157 1.6359,-4.40794 2.06083,-5.60083 4.83478,-7.20399 4.83478,-2.79418 0,1.06186 -0.36464,2.7842 -0.96,4.53465 -1.12665,3.31248 -1.07321,2.98747 -0.49113,2.98747 0.76189,0 2.68957,-1.88734 4.84109,-4.73972 3.90908,-5.18254 6.28803,-7.32878 10.50985,-9.48183 2.98442,-1.52199 4.01853,-1.75162 4.62071,-1.02604 0.27574,0.33227 0.13616,0.73986 -0.60282,1.76 -0.52896,0.73017 -1.09286,1.32759 -1.25315,1.32759 -0.51907,0 -5.48394,4.86891 -6.00573,5.88968 -0.27843,0.54467 -1.35056,2.11518 -2.38253,3.49001 -1.03197,1.37483 -1.87629,2.65139 -1.87629,2.83681 0,0.50342 1.32413,-0.45762 3.08426,-2.23854 1.80134,-1.8226 5.62998,-4.37358 10.2048,-6.79933 3.24067,-1.71835 4.31222,-1.89455 4.30976,-0.70868 -0.003,1.17682 -1.28387,2.58702 -4.28154,4.7119 -1.69974,1.20486 -3.91766,3.07495 -4.92867,4.15575 -1.83539,1.96203 -3.92185,5.39581 -3.52176,5.7959 0.23664,0.23664 3.27075,-1.54112 6.14592,-3.60105 3.06685,-2.19725 6.58285,-3.00983 6.85347,-1.58391 0.14746,0.77702 -0.65942,1.59496 -4.5287,4.59084 -4.43318,3.43252 -5.51184,4.57334 -8.29843,8.77685 -1.32855,2.00407 -2.87712,4.14777 -3.44125,4.76377 -0.56416,0.616 -1.24262,1.44339 -1.50771,1.83865 -0.73002,1.08849 -3.80912,2.81657 -6.4297,3.60853 -1.28675,0.38886 -2.77142,1.07044 -3.29929,1.51461 -0.71479,0.60145 -1.05229,0.71507 -1.32221,0.44514 -0.26995,-0.26994 -0.53047,-0.20553 -1.02071,0.25234 -0.67241,0.62803 -7.37968,4.24425 -11.69824,6.30711 -5.68656,2.7163 -8.2784,3.94135 -10.08,4.76435 -8.44735,3.85892 -13.47708,5.21683 -17.55692,4.73993 -3.49719,-0.40879 -6.17874,0.0216 -10.36644,1.66374 -1.10185,0.43208 -2.18922,0.7856 -2.41638,0.7856 -0.22715,0 -1.26963,-0.55478 -2.31663,-1.23283 -1.04699,-0.67805 -3.48762,-2.0617 -5.42362,-3.07477 -1.936,-1.01306 -4.312,-2.31205 -5.28,-2.88664 -1.41077,-0.83739 -2.37112,-1.12335 -4.83975,-1.44108 -1.69386,-0.21801 -3.78186,-0.32581 -4.64,-0.23956 -2.12319,0.21342 -6.87917,-1.05153 -10.35281,-2.75354 -3.95854,-1.9396 -6.96481,-4.07046 -9.64706,-6.8379 -1.29821,-1.33945 -3.10269,-3.19418 -4.00995,-4.12162 -0.90726,-0.92745 -1.56726,-1.76857 -1.46666,-1.86917 0.10059,-0.10059 0.73489,-0.18289 1.40956,-0.18289 2.14866,0 1.73277,-0.31498 -3.25333,-2.46393 -0.968,-0.4172 -2.624,-0.97567 -3.68,-1.24105 -2.31283,-0.58123 -8.5434,-2.47563 -11.2,-3.40536 -1.056,-0.36956 -2.604,-1.15268 -3.44,-1.74027 -1.89852,-1.33437 -1.94424,-0.85762 -0.11797,1.23008 0.93942,1.0739 1.45406,1.99053 1.55968,2.778 0.15668,1.16816 1.1709,2.92214 2.65976,4.59975 0.42819,0.48248 0.77593,0.98648 0.77276,1.12 -0.007,0.30214 -1.89452,1.86108 -3.94654,3.25985 -2.3636,1.61115 -8.26031,4.28948 -12.36769,5.61751 -2.024,0.65441 -4.48021,1.58622 -5.45824,2.07069 -2.02293,1.00206 -7.34529,4.49473 -6.84936,4.49473 0.17969,0 2.12241,-0.21228 4.31715,-0.47174 2.19475,-0.25945 4.65696,-0.55009 5.47159,-0.64586 1.29493,-0.15224 1.50238,-0.0929 1.65004,0.47173 0.26173,1.00087 1.13494,0.82832 0.94105,-0.18596 -0.1308,-0.68425 -0.052,-0.81045 0.44438,-0.71138 0.56341,0.11245 0.59685,0.42729 0.50478,4.75182 l -0.0986,4.63139 1.43247,1.6 1.43247,1.6 0.50613,-1.18973 c 0.66196,-1.556 0.63842,-2.66503 -0.11964,-5.63696 -0.34418,-1.34932 -0.66818,-3.08641 -0.72,-3.86019 l -0.0942,-1.40688 2.55176,-0.89469 c 1.40347,-0.49208 2.61333,-0.83312 2.68858,-0.75788 0.0752,0.0752 0.24259,1.41385 0.37188,2.97468 0.26379,3.18449 0.47982,3.71827 2.3073,5.70085 1.01256,1.0985 1.38081,1.3195 1.72403,1.03465 0.51028,-0.4235 0.56529,-2.73162 0.10971,-4.60385 -0.8828,-3.62801 -1.28915,-6.02852 -1.05495,-6.23213 0.14393,-0.12513 1.12569,-0.47453 2.18169,-0.77645 1.056,-0.30192 2.1913,-0.69777 2.52288,-0.87968 0.85502,-0.46905 1.14345,0.13643 1.16626,2.44826 0.0104,1.056 0.20569,2.44265 0.43394,3.08144 0.40087,1.12191 2.9941,4.43808 3.47082,4.4384 0.52127,3.2e-4 0.57436,-1.59256 0.12832,-3.85012 -0.91365,-4.62428 -0.96332,-6.49785 -0.21132,-7.97189 0.88018,-1.7253 2.8891,-2.53649 2.8891,-1.16661 0,0.2274 0.37649,1.1189 0.83665,1.98111 1.22253,2.29068 5.07245,11.94852 4.84123,12.14462 -0.96343,0.81709 -4.30212,1.92142 -8.07173,2.66986 -10.4243,2.0697 -15.84548,6.45379 -22.39791,18.11318 -0.49455,0.88 -1.60288,2.88925 -2.46294,4.465 -3.17075,5.80921 -3.43617,5.63993 -3.36311,-2.145 z m 103.85048,-27.79951 c 2.93005,-0.72161 6.91132,-1.95832 8.84732,-2.74825 3.79117,-1.54688 9.85757,-4.58132 9.62464,-4.81428 -0.0784,-0.0784 -2.49203,0.79091 -5.36361,1.93182 -5.31984,2.11365 -8.99335,3.17333 -12.94221,3.73337 -5.0566,0.71716 -17.18027,1.9664 -17.58315,1.8118 -0.55997,-0.21488 -0.90654,0.3264 -0.40676,0.63528 0.20863,0.12894 1.68699,0.42128 3.28522,0.64962 4.49003,0.64152 8.36027,0.32224 14.53855,-1.19936 z m -2.09584,-5.27999 c 2.59357,-0.585 6.86713,-2.25842 9.50316,-3.72118 3.53204,-1.95996 6.39392,-3.83024 6.24064,-4.0783 -0.15587,-0.2522 -3.87744,0.81781 -6.15683,1.7702 -4.09104,1.70934 -12.88864,3.6145 -17.91295,3.87913 -2.37416,0.12505 -3.83437,0.32689 -3.7187,0.51404 0.28342,0.45858 2.80933,1.51342 4.35415,1.81832 2.23153,0.44043 5.24684,0.36899 7.69053,-0.18221 z m -34.87591,-1.5877 c 2.78358,-0.57792 4.91324,-0.57465 6.57054,0.0101 0.72156,0.25458 1.3812,0.3508 1.46586,0.21381 0.20317,-0.32874 -2.39788,-2.81678 -4.65154,-4.44943 -1.65221,-1.19692 -1.89282,-1.27839 -3.04,-1.0293 -3.89257,0.84522 -10.51991,0.59669 -13.66336,-0.51238 -1.51693,-0.53521 -4.15958,-2.12831 -5.38732,-3.24772 -1.42725,-1.3013 -1.31981,-0.25395 0.17841,1.73912 1.85758,2.47113 4.52852,4.97255 6.28996,5.89074 0.77909,0.40612 2.56853,1.06037 3.97653,1.45388 2.76436,0.7726 4.26856,0.76007 8.26092,-0.0688 z M 297.28,291.54919 c 0,-0.57572 -5.18692,-4.85376 -6.98618,-5.76203 -1.01165,-0.51067 -2.71256,-1.10029 -3.77979,-1.31026 -1.67119,-0.32879 -2.0801,-0.30952 -2.94722,0.13889 -0.98029,0.50693 -1.3514,1.14421 -0.66631,1.14421 0.18728,0 1.12755,0.36 2.08948,0.8 0.96194,0.44 1.83015,0.8 1.92934,0.8 0.0992,0 1.35494,0.59903 2.79052,1.33118 2.2995,1.17275 6.66217,3.02778 7.33016,3.11682 0.132,0.0176 0.24,-0.0989 0.24,-0.25881 z m -73.70576,-5.81298 c 0.20584,-0.77892 0.38584,-3.47276 0.4,-5.98631 0.038,-6.74483 0.822,-8.68382 5.59038,-13.82644 2.53568,-2.73468 2.36116,-3.17893 -0.68428,-1.74184 -4.49257,2.11996 -7.44737,5.04817 -8.31799,8.24313 -0.75425,2.76788 -0.87488,6.80788 -0.27334,9.15404 0.68317,2.6645 2.10946,5.83424 2.55941,5.68795 0.19337,-0.0629 0.51999,-0.75161 0.72582,-1.53053 z m 44.04258,0.16867 c 1.26675,-0.27231 2.66318,-0.68768 3.10318,-0.92305 0.44,-0.23536 1.304,-0.52732 1.92,-0.64878 0.616,-0.12146 1.39545,-0.29923 1.73212,-0.39505 1.43471,-0.40834 -0.70618,-0.79415 -6.77873,-1.22162 -3.47237,-0.24443 -7.17739,-0.65077 -8.23339,-0.90299 -3.7207,-0.88864 -7.54061,-2.75401 -10.0656,-4.9153 -1.62876,-1.39416 -5.1344,-5.70921 -5.1344,-6.31988 0,-0.23091 -0.19819,-0.58433 -0.44042,-0.78536 -0.35708,-0.29635 -0.50846,-0.0953 -0.8,1.06252 -0.50382,2.00084 -0.45363,2.77065 0.29024,4.45231 1.57635,3.5636 5.54911,7.48697 9.11739,9.00403 1.85984,0.79072 4.9456,1.71045 6.23279,1.85772 2.73684,0.31313 6.94081,0.19033 9.05682,-0.26455 z m 1.23866,-18.28861 c -0.53824,-0.84495 -1.41109,-2.27622 -1.93965,-3.18059 -1.20085,-2.05465 -2.99949,-3.51973 -6.23797,-5.08111 -2.25682,-1.08809 -2.84593,-1.23095 -5.6,-1.35791 -3.48451,-0.16065 -5.7152,0.44627 -7.68533,2.09101 l -1.07378,0.89643 5.88062,-0.001 c 5.64641,-9.6e-4 5.97622,0.0344 8.28063,0.88992 2.68037,0.99515 5.26473,2.79013 6.62024,4.59812 2.35086,3.13559 3.50127,3.88622 1.75524,1.14527 z m 285.27939,69.87713 c -1.66749,-11.28121 -6.03593,-26.02305 -11.15789,-37.6534 -4.72396,-10.72674 -9.91744,-19.58249 -17.17126,-29.28 -8.37226,-11.19268 -20.44243,-22.68233 -32.52573,-30.96136 -5.41398,-3.70945 -16.19821,-10.15864 -16.9871,-10.15864 -0.13338,0 -0.46986,-0.19561 -0.74771,-0.43469 -0.27786,-0.23908 -0.93719,-0.58962 -1.46519,-0.77898 -0.528,-0.18936 -2.904,-1.14504 -5.28,-2.12374 -2.376,-0.9787 -4.42957,-1.78016 -4.56349,-1.78102 -0.13392,-9.6e-4 -0.85392,-0.27981 -1.6,-0.61989 -1.48003,-0.67462 -7.81609,-2.75597 -9.35651,-3.07355 -0.528,-0.10886 -1.248,-0.31737 -1.6,-0.46336 -0.59168,-0.24538 -1.35296,-0.43765 -5.04,-1.27284 -4.0368,-0.91443 -14.46464,-2.57193 -16.18073,-2.57193 -0.71584,0 -1.37914,-0.12563 -1.47402,-0.27916 -0.30985,-0.50137 2.08506,-0.69471 10.37475,-0.83752 11.60653,-0.19995 19.3496,0.75687 32.29056,3.99019 6.72512,1.68029 19.13658,7.15671 27.06583,11.94251 1.75801,1.06107 3.7359,2.22954 4.39532,2.5966 3.84743,2.14158 10.25952,7.38097 16.09012,13.14738 3.38121,3.344 6.72848,6.8 7.43833,7.68 5.17066,6.40997 5.54333,6.93378 10.35891,14.56 3.14704,4.98382 8.24016,15.7612 10.2832,21.76 4.44135,13.04067 6.26221,20.79529 7.589,32.32 0.48492,4.21232 0.83222,20.15999 0.43904,20.15999 -0.16957,0 -0.6985,-2.63996 -1.17543,-5.86659 z m -217.65488,1.36112 c -6.86416,-0.25219 -13.70134,-0.62118 -25.91999,-1.39894 -10.23019,-0.65117 -12.10784,-0.83575 -11.78503,-1.15856 0.60233,-0.60234 46.93539,-3.47776 48.48502,-3.00899 0.40701,0.12313 1.136,0.59462 1.62,1.04777 2.33402,2.18528 -0.13929,4.94515 -4.30972,4.80903 -0.92964,-0.0304 -4.57028,-0.161 -8.09028,-0.29031 z m -103.19836,-2.64499 c 0.005,-1.21245 3.79161,-5.64954 4.82085,-5.64954 0.77289,0 2.27244,0.73504 2.80246,1.37367 0.67687,0.81558 -1.43868,3.07721 -3.62494,3.87526 -1.77082,0.6464 -4.00045,0.86979 -3.99837,0.40061 z m 9.19837,-7.96198 c -0.836,-0.17424 -1.52,-0.43152 -1.52,-0.57178 0,-0.14022 0.63764,-0.62864 1.41698,-1.08537 1.02684,-0.60176 1.86889,-0.8304 3.0583,-0.8304 0.90272,0 2.27237,-0.15892 3.04366,-0.35312 2.35233,-0.59232 2.3026,-0.16615 -0.18302,1.56825 -2.52737,1.76352 -2.98213,1.86301 -5.81592,1.27242 z m -85.78197,-6.75853 c 1.89018,-1.73222 1.44699,-3.97785 -1.01569,-5.14647 -0.93272,-0.4426 -1.65676,-0.51333 -3.62397,-0.35402 -3.40119,0.27545 -9.33306,0.83262 -10.29837,0.96731 -0.44,0.0614 -2.6,0.28019 -4.8,0.48621 -8.54408,0.80013 -15.17534,1.60528 -15.4454,1.87534 -0.16321,0.16321 0.16663,0.36261 0.78149,0.47242 1.73146,0.30923 8.7406,1.09172 13.38391,1.49419 2.376,0.20592 6.408,0.55872 8.96,0.78396 2.552,0.22525 6.04611,0.4281 7.7647,0.45079 3.12099,0.0412 3.12608,0.04 4.29333,-1.02973 z m 17.27969,-18.47697 c 1.98761,-0.96218 2.66252,-1.96025 2.66108,-3.93521 -0.002,-3.05928 -1.83813,-4.78103 -5.1188,-4.80051 -0.968,-0.006 -4.568,0.16948 -8,0.38942 -3.432,0.21993 -10.704,0.68264 -16.16,1.02823 -5.456,0.3456 -11.864,0.77651 -14.24,0.95758 -2.376,0.18107 -6.48,0.46758 -9.12,0.6367 -12.64702,0.81014 -24.109013,1.63169 -25.120002,1.80052 -2.821132,0.47109 0.761652,0.79642 22.240002,2.01946 2.816,0.16035 6.992,0.37536 9.28,0.47779 2.288,0.10244 5.24,0.25252 6.56,0.33353 5.76391,0.35372 8.16135,0.47514 13.28,0.67258 2.992,0.1154 8.608,0.38755 12.48,0.60477 9.9783,0.55977 9.71043,0.56417 11.25772,-0.18486 z"
         id="path957" />
      <path
         style="fill:#243e51;stroke-width:0.32"
         d="m 230.56,497.60994 c -32.77932,-0.2607 -63.29846,-0.66422 -85.92,-1.13603 -4.312,-0.0899 -16.192,-0.30515 -26.4,-0.47821 -10.208,-0.17308 -20.432001,-0.38377 -22.720001,-0.46819 -2.288,-0.0845 -6.752,-0.24038 -9.92,-0.34653 -7.075351,-0.23705 -22.01255,-1.03676 -25.934125,-1.38841 -2.856761,-0.25619 -4.634473,-0.81888 -4.10023,-1.29783 0.498035,-0.44646 8.561875,-1.104 21.954355,-1.79014 2.244,-0.11498 4.08,-0.27485 4.08,-0.35523 0,-0.0804 -0.848682,-1.15443 -1.885962,-2.38672 -2.217325,-2.63421 -2.638291,-3.78675 -4.486163,-12.28266 -1.439322,-6.6175 -1.884448,-7.91801 -4.436409,-12.96147 -2.436391,-4.81504 -3.086682,-6.91593 -2.850135,-9.20787 0.233427,-2.2617 1.825981,-5.5263 3.280877,-6.72557 1.303552,-1.07449 6.940089,-3.91107 9.286166,-4.67321 2.255655,-0.7328 6.89264,-3.43469 9.571626,-5.57722 3.166614,-2.53254 8.451196,-7.99872 11.022981,-11.40176 1.87139,-2.47629 3.23828,-4.4337 7.57591,-10.84886 0.92255,-1.36439 4.42761,-4.42845 6.89516,-6.02756 2.26413,-1.46732 5.15197,-2.72137 8.26595,-3.5895 1.144,-0.31894 2.70564,-0.77539 3.47031,-1.01434 0.76468,-0.23894 3.46382,-0.67718 5.99811,-0.97388 5.82131,-0.68148 6.17432,-0.87952 7.77957,-4.36458 0.66733,-1.4488 1.58298,-3.42618 2.03477,-4.39418 0.4518,-0.968 1.34015,-3.056 1.97412,-4.64 0.63397,-1.584 1.30474,-3.1464 1.49061,-3.47203 0.18586,-0.32563 0.24983,-1.11763 0.14214,-1.76 -0.17725,-1.05728 0.0166,-1.4864 2.04554,-4.52797 2.78363,-4.17292 3.02431,-4.51622 4.81356,-6.8656 0.7982,-1.04806 2.17127,-2.95414 3.05127,-4.23571 0.88,-1.2816 2.23121,-3.12627 3.00269,-4.09933 1.40081,-1.76678 1.40303,-1.77376 1.65487,-5.20425 0.71731,-9.77111 2.36947,-15.85725 5.88397,-21.67511 2.16239,-3.57958 6.79816,-8.19305 12.94062,-12.87833 0.97943,-0.74707 2.29573,-1.89907 2.9251,-2.56 0.62937,-0.6609 1.67472,-1.60182 2.32301,-2.0909 0.64828,-0.48908 1.92507,-2.00108 2.83731,-3.36 0.91224,-1.35892 2.49856,-3.72764 3.52515,-5.26381 3.03599,-4.54302 4.79867,-8.78248 6.48905,-15.60695 0.49506,-1.99867 0.98312,-3.63758 3.55714,-11.94493 1.83561,-5.92424 6.32457,-15.52441 9.63198,-20.59912 3.21001,-4.92528 8.09845,-10.3269 10.82911,-11.96594 0.88,-0.52821 2.81799,-1.81304 4.30666,-2.85519 4.13147,-2.89225 9.11229,-5.17911 16.65334,-7.64611 10.47835,-3.42792 14.81058,-7.50542 16.14741,-15.19797 0.27233,-1.5671 0.57353,-5.7431 0.66933,-9.28 0.0958,-3.53691 0.3316,-7.36674 0.52401,-8.51074 0.99447,-5.91276 3.06558,-9.46231 6.8965,-11.81949 0.84208,-0.51814 1.96119,-1.52884 2.48691,-2.246 1.63751,-2.23383 5.72157,-4.64827 8.7454,-5.17016 3.86494,-0.66705 10.53576,-0.26406 14.45044,0.87297 2.66313,0.77352 7.43105,2.60581 11.36,4.3656 1.936,0.86714 5.104,2.06638 7.04,2.66497 1.936,0.59859 4.168,1.36137 4.96,1.69508 0.792,0.3337 2.52,0.94655 3.84,1.36188 l 2.4,0.75515 0.70099,1.92 c 0.8431,2.30931 0.91165,4.36133 0.23318,6.97962 -0.86713,3.34639 -2.23273,5.29484 -5.39122,7.69226 -0.89263,0.67754 -1.69495,1.30104 -1.78295,1.38556 -0.088,0.0845 -0.232,2.91815 -0.32,6.29695 l -0.16,6.14329 -1.08934,1.69604 -1.08932,1.69605 0.2149,6.46632 c 0.16607,4.99651 0.12272,6.58915 -0.19066,7.00668 -0.47918,0.63843 -2.8402,1.51723 -4.07622,1.51723 -0.4786,0 -1.10021,0.25419 -1.38137,0.56487 -0.86322,0.95384 -3.81508,7.51796 -3.99112,8.87513 -0.21639,1.6683 -1.09825,3.39151 -2.57073,5.02333 -1.95577,2.16742 -4.1645,2.69025 -7.07846,1.67556 -2.02565,-0.70536 -7.01798,-3.30746 -8.43516,-4.39657 -1.51446,-1.16386 -2.4278,-0.99532 -4.13405,0.76285 l -1.22686,1.26421 1.68813,1.99531 c 0.92848,1.09741 2.37543,2.89095 3.21546,3.98564 1.39771,1.82142 2.50625,2.62733 4.2248,3.07143 2.7467,0.70978 5.54644,1.60613 6.08,1.94654 0.352,0.22458 1.31695,0.66445 2.14433,0.9775 0.82738,0.31305 1.7497,0.84031 2.0496,1.17169 0.29989,0.33138 0.65529,0.60251 0.78978,0.60251 0.13449,0 0.98612,-1.52227 1.89253,-3.38282 1.65217,-3.39135 8.47228,-15.30438 10.32734,-18.03927 2.34206,-3.45288 7.97622,-10.84708 10.01072,-13.13791 2.83974,-3.19757 9.60541,-10.36887 11.04013,-11.70205 0.96006,-0.89213 3.40156,-3.01616 5.42556,-4.72008 2.024,-1.70392 3.91546,-3.29746 4.20327,-3.54121 0.97533,-0.82607 6.51104,-4.89803 7.47673,-5.49975 0.528,-0.32899 1.464,-0.98453 2.08,-1.45676 1.3944,-1.06895 10.05213,-6.24146 12.64,-7.55168 2.57373,-1.30306 9.92426,-4.68139 11.52,-5.29462 1.4088,-0.54139 4.26266,-1.679 5.76,-2.29607 3.86272,-1.59186 17.6833,-5.2785 22.97252,-6.12793 10.88284,-1.74776 14.40953,-2.075 23.74748,-2.20348 13.71351,-0.1887 22.24836,0.74836 35.84,3.93495 15.41027,3.61297 32.37248,11.00664 45.12,19.66741 1.76,1.19576 4.19533,2.82915 5.41184,3.62977 3.4248,2.25392 11.33277,8.70611 14.26816,11.6415 0.088,0.088 0.78195,0.70862 1.54211,1.37915 1.2586,1.11018 2.9921,2.91141 8.54071,8.87442 7.33792,7.88593 15.85753,20.54503 21.80227,32.39543 1.62176,3.23283 6.60195,15.2722 8.17021,19.751 3.05894,8.73618 5.78928,21.34173 7.00301,32.33219 0.96476,8.7358 1.14268,18.28281 0.48281,25.9078 -1.6703,19.3009 -5.05955,33.70468 -11.78397,50.08 -1.02656,2.49991 -4.86684,10.3649 -6.16697,12.63005 -3.10739,5.41405 -4.88749,8.40855 -6.18819,10.40995 -1.61597,2.48647 -6.12596,8.86967 -6.44368,9.12 -0.11168,0.088 -0.83191,1.024 -1.60052,2.08 -0.7686,1.056 -1.71571,2.28 -2.10467,2.72 -0.38896,0.44 -1.82729,2.096 -3.19625,3.68 -3.68157,4.25981 -14.89552,14.9913 -18.39133,17.6 -0.47168,0.352 -2.56941,1.92855 -4.66157,3.50343 -7.80582,5.87584 -17.94637,12.17148 -23.32397,14.48048 -0.88,0.37785 -3.0095,1.34604 -4.73225,2.15155 -1.72272,0.8055 -3.20029,1.46454 -3.28349,1.46454 -0.0832,0 -0.76167,0.28067 -1.50775,0.62375 -4.81984,2.21625 -16.07001,5.81913 -20.5182,6.571 -0.68292,0.11546 -1.11492,0.32612 -0.96,0.46813 0.15494,0.14205 8.27369,0.35178 18.04169,0.46605 9.768,0.1143 23.736,0.34109 31.04,0.50397 7.304,0.16288 17.672,0.38118 23.04,0.48512 5.368,0.10393 10.12,0.24662 10.56,0.31709 0.44,0.0705 3.464,0.21561 6.72,0.32249 3.256,0.10691 8.08,0.41523 10.72,0.68519 2.64,0.26995 5.736,0.58675 6.88,0.70403 1.144,0.11725 2.08,0.35718 2.08,0.53318 0,0.47194 -2.02918,1.08087 -3.68,1.10435 -0.792,0.0112 -2.304,0.15264 -3.36,0.31415 -1.056,0.16153 -5.376,0.45235 -9.6,0.6463 -4.224,0.19395 -10.632,0.49034 -14.24,0.65863 -3.608,0.16828 -14.048,0.45289 -23.2,0.63241 -9.152,0.17952 -18.44,0.39213 -20.64,0.47242 -2.2,0.0803 -15.664,0.30336 -29.92,0.49571 -14.256,0.19235 -26.928,0.40214 -28.16,0.46621 -4.8679,0.25305 -181.03576,0.40441 -209.27999,0.17977 z m -94.4,-8.16723 c 2.816,-0.0806 13.04,-0.22489 22.72,-0.32064 21.23555,-0.21001 31.84,-0.47251 31.84,-0.78809 0,-0.12916 -0.30332,-0.50912 -0.67405,-0.84439 -0.87127,-0.78797 -1.66233,-2.35814 -2.87127,-5.6992 -0.53648,-1.48262 -1.47796,-3.53024 -2.09219,-4.55027 -1.10324,-1.83213 -4.35606,-5.08557 -7.58227,-7.58378 -2.78613,-2.1574 -4.68453,-4.12473 -5.89638,-6.11049 -1.00389,-1.64496 -1.17495,-2.22243 -1.30042,-4.38989 -0.18342,-3.16841 0.28188,-4.99712 1.86444,-7.32755 1.40953,-2.07562 3.35269,-3.41949 7.53066,-5.20806 5.03495,-2.15549 7.59249,-3.70868 12.45923,-7.5665 1.23077,-0.97562 2.76003,-2.13386 3.39835,-2.57386 4.13562,-2.85068 7.36339,-6.65808 13.29293,-15.68 2.58325,-3.93046 7.77988,-8.31328 11.79097,-9.94441 0.704,-0.28631 2.288,-0.99223 3.52,-1.56874 l 2.24,-1.04819 -1.14925,-0.40499 c -0.63208,-0.22275 -2.19453,-0.99735 -3.47211,-1.72131 -2.96567,-1.68055 -3.76148,-1.88756 -4.31994,-1.12381 -0.35121,0.48029 -0.56553,0.52374 -1.18701,0.24057 -2.27437,-1.03628 -15.63169,-12.15286 -15.63169,-13.00944 0,-0.183 0.68908,-1.49529 1.5313,-2.91622 0.84222,-1.4209 1.81006,-3.23146 2.15075,-4.02346 0.34069,-0.792 1.4516,-2.94867 2.46869,-4.79264 1.11995,-2.03043 1.84713,-3.73414 1.84386,-4.32 l -0.005,-0.96736 -0.67621,1.12 c -1.33117,2.20484 -6.04159,9.17226 -8.11275,12 -1.16019,1.584 -2.82739,3.888 -3.70489,5.12 -1.49757,2.10256 -2.13224,2.96292 -4.15719,5.6354 -0.452,0.59654 -1.84916,2.4526 -3.10479,4.1246 -3.24087,4.31556 -4.84671,6.00096 -5.18936,5.44653 -0.32562,-0.52688 -1.08077,0.005 -4.96403,3.49677 -1.408,1.26602 -4.25599,3.5983 -6.32888,5.18282 -2.07288,1.58454 -4.30488,3.47865 -4.96,4.20918 -5.05201,5.63344 -6.35587,6.6903 -9.85254,7.98621 -2.86677,1.06243 -7.03337,2.37251 -8.45403,2.65821 -1.23899,0.24912 -7.56109,3.2663 -14.88455,7.10355 -2.64,1.38326 -8.544,4.44096 -13.12,6.79485 -4.576,2.35385 -9.256,4.8464 -10.4,5.53894 -4.18785,2.53523 -8.74577,6.73997 -9.15328,8.44403 -0.11823,0.4944 -0.33452,1.05213 -0.48064,1.23939 -0.7686,0.98509 -1.199624,10.88535 -0.58917,13.53277 0.58856,2.55251 2.981,4.84979 6.18241,5.93654 4.35916,1.47975 5.88643,3.45428 5.51043,7.12416 l -0.21316,2.08061 9.53171,-0.19267 c 5.24243,-0.10595 11.8357,-0.25859 14.6517,-0.33917 z m -45.280001,-0.13654 c 0,-0.1616 0.07671,-0.49373 0.170464,-0.73805 0.09375,-0.24432 -0.195114,-0.8681 -0.64193,-1.38618 -0.993322,-1.15174 -1.299206,-2.01929 -0.86505,-2.45344 0.361732,-0.36172 0.839264,0.0725 3.354957,3.05037 1.65448,1.95847 2.791101,2.35914 3.410301,1.20215 0.446858,-0.83495 0.492899,-0.7233 -0.948742,-2.30045 -1.295037,-1.41674 -1.610388,-2.20391 -0.88,-2.19658 0.22,0.003 1.593865,1.15421 3.053033,2.56 1.459168,1.40579 2.845538,2.556 3.080818,2.556 0.23528,0 0.60694,-0.21587 0.82591,-0.47971 0.54608,-0.65798 -0.0322,-1.996 -1.461182,-3.38106 -0.604218,-0.58563 -1.09858,-1.25254 -1.09858,-1.48201 0,-0.91978 1.066032,-0.30135 3.433212,1.99168 2.70269,2.61805 3.54377,3.04841 4.36079,2.23139 1.1903,-1.1903 0.25114,-2.86413 -1.75826,-3.13363 -2.12836,-0.28547 -5.912522,-2.40144 -7.558874,-4.22666 -2.615658,-2.89981 -2.476867,-2.29094 -2.476867,-10.86624 0,-8.33891 0.144396,-9.29021 2.009673,-13.24 1.276829,-2.70374 7.434138,-8.86777 10.464878,-10.47632 4.56414,-2.4224 7.18786,-3.86198 7.84545,-4.30467 0.44,-0.29622 3.68,-2.02003 7.2,-3.83069 12.23884,-6.29558 13.13383,-6.79248 15.55269,-8.63462 3.53154,-2.68957 3.63062,-2.77683 6.71757,-5.9153 1.55141,-1.57728 2.90092,-2.78764 2.99892,-2.68963 0.098,0.098 -0.27771,1.21027 -0.8349,2.47175 -0.55718,1.2615 -0.92578,2.38089 -0.8191,2.48758 0.27992,0.2799 6.53827,-0.8145 8.05852,-1.40922 2.33448,-0.91324 4.46573,-2.49516 6.65068,-4.93648 2.14315,-2.39459 2.52035,-3.18422 1.75562,-3.6752 -0.22,-0.14124 -1.84,-0.32972 -3.6,-0.41888 l -3.2,-0.16208 2.88,-1.47856 c 1.584,-0.81321 4.2042,-1.93097 5.82267,-2.48393 1.61847,-0.55296 3.6306,-1.30029 4.47141,-1.66067 2.44712,-1.04896 5.85887,-3.29037 5.77829,-3.79616 -0.0402,-0.25261 -0.93699,-0.95037 -1.99277,-1.55056 -7.87729,-4.47802 -12.36034,-7.58228 -18.76683,-12.99501 -1.44057,-1.21712 -2.34088,-1.77501 -2.54121,-1.57466 -0.2936,0.2936 -2.58198,5.96362 -3.1741,7.86458 -0.46266,1.48534 -3.13037,6.58403 -4.07112,7.78099 -0.99388,1.26454 -4.51521,3.81178 -4.83179,3.4952 -0.11274,-0.11274 0.15071,-0.47328 0.58545,-0.80122 0.43474,-0.32793 0.71642,-0.67024 0.62595,-0.7607 -0.49603,-0.49603 -14.17183,2.46272 -17.60877,3.80966 -5.44316,2.13316 -10.08792,6.12439 -12.97985,11.1536 -2.8248,4.91245 -5.55551,8.46215 -9.83625,12.78628 -2.297865,2.32115 -7.381859,6.59433 -9.498454,7.98364 -2.556576,1.67805 -7.881606,4.2489 -9.701846,4.68388 -1.965658,0.46972 -4.164922,1.60736 -5.751789,2.97526 -1.005757,0.86694 -1.260986,1.32707 -1.394826,2.5145 -0.195331,1.73296 0.465674,3.44854 3.072295,7.97388 2.666752,4.62973 3.773043,8.11696 4.517536,14.24 1.006697,8.27959 4.479711,13.71491 8.876003,13.89114 0.396,0.016 0.72,-0.10336 0.72,-0.26496 z m -6.747731,-32.43635 c -0.879428,-0.6752 -1.252269,-1.73043 -1.252269,-3.54423 0,-2.17708 0.925897,-3.43065 3.330713,-4.50937 0.896109,-0.40199 2.181923,-1.17639 2.85737,-1.7209 1.270105,-1.0239 2.36976,-1.52416 2.676384,-1.21753 0.09693,0.0969 -1.001786,1.28444 -2.441587,2.63891 -2.872794,2.70253 -3.548032,3.71696 -3.532704,5.30739 0.0112,1.16294 0.72535,2.35242 1.226422,2.04272 0.175549,-0.10848 0.42313,-0.0291 0.550179,0.17651 0.59224,0.95827 -2.323613,1.66407 -3.414508,0.8265 z M 104.96,436.54899 c 0,-0.13805 0.396,-0.48509 0.88,-0.77124 0.484,-0.28611 2.032,-1.51315 3.44,-2.72678 4.13712,-3.56598 7.29545,-5.47366 13.30012,-8.03354 3.02823,-1.29097 7.67668,-3.74032 9.3583,-4.93107 0.49413,-0.34992 0.99813,-0.53245 1.12,-0.40566 0.39688,0.41289 -5.13127,5.25433 -8.73842,7.65293 -4.06933,2.70592 -6.72725,4.09244 -11.75668,6.13305 -1.98182,0.80407 -4.38489,1.88301 -5.34015,2.39763 -1.8025,0.97108 -2.26317,1.11044 -2.26317,0.68468 z m 108.28716,51.47827 c 0.29905,-0.2482 0.50077,-0.74596 0.44828,-1.10615 -0.0768,-0.52713 -0.48829,-0.73411 -2.1095,-1.06121 -1.10773,-0.22349 -3.1942,-1.02138 -4.63661,-1.77312 -4.28206,-2.23165 -5.80478,-4.91284 -6.80116,-11.97533 -0.25206,-1.78672 -0.76491,-4.64269 -1.13964,-6.34663 -0.5998,-2.72729 -0.63558,-3.33417 -0.29897,-5.07142 0.81436,-4.20291 4.05339,-7.42934 12.01928,-11.97248 2.61074,-1.48899 14.25287,-7.27184 23.35116,-11.59897 9.64407,-4.58672 12.16952,-5.95898 16.4199,-8.92202 2.58012,-1.79869 5.20956,-5.29059 6.01179,-7.98368 0.27913,-0.93702 0.57339,-1.63782 0.65391,-1.55731 0.0805,0.0805 0.1464,1.39459 0.1464,2.92022 0,2.68074 0.0227,2.76659 0.67857,2.55843 1.06977,-0.33952 3.84761,-2.22131 4.75982,-3.22444 1.17134,-1.28807 2.38676,-3.6266 2.87499,-5.53156 0.43506,-1.6975 0.28694,-2.6854 -1.08277,-7.2216 -2.92461,-9.68576 -8.52379,-21.25865 -12.20937,-25.23545 l -0.79798,-0.86106 -2.32763,1.5712 c -1.2802,0.86416 -3.62363,2.41213 -5.20763,3.43987 -3.66053,2.37514 -8.0311,5.872 -7.89733,6.31866 0.29098,0.97155 4.07928,5.66246 7.77947,9.63296 2.51158,2.6951 3.58218,4.01382 3.25855,4.01382 -1.25604,0 -9.58995,-5.84284 -12.98822,-9.10595 -1.01614,-0.97574 -1.9612,-1.77405 -2.10013,-1.77405 -0.13893,0 -0.67555,0.44192 -1.19247,0.98202 -0.51693,0.54013 -1.70341,1.57146 -2.63662,2.29184 -1.9541,1.50848 -2.07004,1.24688 1.69675,3.82826 5.54688,3.80131 8.46795,5.89971 9.49086,6.81788 0.58821,0.528 1.96886,1.68 3.06811,2.56 1.09925,0.88 1.99917,1.72375 1.99983,1.87501 6.4e-4,0.15127 -0.5388,0.192 -1.1988,0.0906 -0.66,-0.10147 -3.144,-0.27897 -5.52,-0.39443 -3.39678,-0.16509 -4.93549,-0.0946 -7.2,0.32979 -4.37051,0.81907 -7.13069,1.73527 -9.59451,3.18461 -2.71449,1.59683 -6.7625,5.51936 -8.14423,7.89178 -3.87564,6.65446 -5.69042,8.9278 -10.5731,13.2448 -3.49149,3.08697 -4.95112,4.18486 -9.43702,7.09817 -3.84399,2.49648 -10.20145,5.87971 -11.04855,5.87971 -0.42702,0 -4.60158,2.73223 -5.10934,3.34404 -0.40611,0.48931 -0.49874,2.77948 -0.18612,4.60143 0.2873,1.67437 2.50615,4.05312 5.85332,6.27514 1.18775,0.78848 2.67934,1.90739 3.31464,2.4865 2.23481,2.03708 4.62935,5.84864 6.33982,10.09155 1.90761,4.73193 3.3077,6.82355 5.22253,7.80195 2.35684,1.20426 7.91545,2.18352 11.95428,2.10605 2.50227,-0.048 3.71238,-0.20151 4.09544,-0.51939 z M 187.61569,459.039 c -1.36948,-0.95923 -1.69669,-3.84205 -0.68749,-6.05702 0.36384,-0.79853 1.17647,-1.41658 4.37306,-3.32586 2.94087,-1.75654 2.97772,-1.46973 0.22558,1.75578 -2.4013,2.8143 -2.78046,3.9751 -1.92099,5.88109 0.46016,1.02044 0.48983,1.34252 0.16025,1.73964 -0.51296,0.61808 -1.27385,0.62032 -2.15041,0.006 z m 20.0842,-21.83901 c 0.0353,-0.42537 4.54473,-3.21494 7.1157,-4.40176 1.37257,-0.6336 4.54057,-1.7295 7.04,-2.43532 2.49942,-0.7058 5.8046,-1.85021 7.34484,-2.54311 1.54024,-0.69289 2.85672,-1.25981 2.92549,-1.25981 0.0688,0 1.30246,-0.66211 2.74151,-1.47139 1.43905,-0.80925 2.71458,-1.37289 2.83451,-1.25254 0.25779,0.25872 -3.51315,3.84329 -6.02194,5.72432 -0.968,0.72579 -1.95019,1.49952 -2.18263,1.71939 -1.4943,1.41347 -6.73848,3.62192 -10.39334,4.37683 -1.34038,0.27687 -3.54242,0.50339 -4.89342,0.50339 -2.35422,0 -4.75074,0.45044 -5.39461,1.01396 -0.37873,0.33145 -1.1429,0.34928 -1.11611,0.0259 z m 191.98004,51.0985 c 3e-5,-0.0998 -1.11594,-0.44301 -2.47994,-0.76263 -3.10323,-0.72723 -8.56816,-2.33872 -9.84,-2.90163 -0.528,-0.23369 -1.392,-0.53014 -1.92,-0.65881 -1.13779,-0.27728 -6.5799,-2.33981 -7.04,-2.66813 -0.176,-0.1256 -1.328,-0.64179 -2.56,-1.14707 -4.33689,-1.77869 -12.51907,-5.88144 -16,-8.02279 -1.936,-1.19097 -4.672,-2.86099 -6.08,-3.71117 l -2.56,-1.54579 -4.64,-0.006 c -2.552,-0.003 -7.52,-0.14793 -11.04,-0.32144 -3.52,-0.17347 -9.56799,-0.45987 -13.43999,-0.63641 -3.872,-0.17658 -11.576,-0.53399 -17.12,-0.79428 -5.544,-0.26028 -13.392,-0.61696 -17.44,-0.79257 -4.048,-0.17559 -8.512,-0.39719 -9.92,-0.49239 -1.408,-0.0952 -4.936,-0.30822 -7.84,-0.4734 -10.16516,-0.57812 -16.48384,-1.00976 -16.93351,-1.15674 -1.07883,-0.35264 0.38567,-0.78653 3.66902,-1.08698 1.92747,-0.17638 4.22449,-0.39046 5.10449,-0.47571 2.95199,-0.28605 14.96514,-1.11693 23.2,-1.60464 7.8741,-0.46633 11.66083,-0.70163 33.12,-2.05801 5.456,-0.34487 11.79199,-0.73319 14.07999,-0.86291 2.288,-0.12976 4.256,-0.2456 4.37335,-0.25748 0.7216,-0.0729 0.33197,-0.62374 -1.73239,-2.44918 -3.40246,-3.0087 -10.54931,-10.28403 -13.16643,-13.40317 -6.04022,-7.19881 -12.05876,-15.62541 -14.83747,-20.77398 -0.62786,-1.16336 -1.32133,-2.3312 -1.54104,-2.5952 -0.21971,-0.264 -1.78399,-3.288 -3.47618,-6.72 -1.6922,-3.432 -3.21692,-6.49005 -3.38828,-6.79565 -0.17135,-0.30563 -0.31155,-0.82272 -0.31155,-1.14909 0,-0.55472 0.48521,-0.60742 7.44,-0.80825 7.44986,-0.21514 35.09823,-1.29607 42.31999,-1.65456 2.112,-0.10484 6.648,-0.31421 10.08,-0.46525 22.67706,-0.99805 31.55223,-1.52163 31.23143,-1.84243 -0.39683,-0.39684 -24.40275,-1.47111 -51.87143,-2.32128 -5.456,-0.16887 -11.71999,-0.38013 -13.91999,-0.46948 -11.60522,-0.47126 -17.30805,-0.67884 -26.56,-0.96668 -3.256,-0.10132 -6.856,-0.2586 -8,-0.34951 -5.25651,-0.41769 -8.96,-0.88352 -8.96,-1.12694 0,-0.14643 0.612,-0.42682 1.36,-0.62311 0.748,-0.19632 2.296,-0.62105 3.44,-0.94387 1.77548,-0.50105 3.51883,-0.91017 7.63119,-1.79088 0.8626,-0.18473 0.85171,-0.28873 -0.46187,-4.40905 -0.44116,-1.38381 -0.91688,-3.13034 -1.05715,-3.88119 l -0.25504,-1.36515 1.63143,-0.19603 c 0.89729,-0.10781 3.28744,-0.19866 5.31144,-0.20189 2.024,-0.003 6.416,-0.14067 9.76,-0.30547 3.344,-0.1648 10.04,-0.39629 14.88,-0.51443 4.84,-0.11815 8.87199,-0.25472 8.95999,-0.30352 0.088,-0.0488 2.896,-0.17984 6.24,-0.29127 9.63066,-0.32083 10.72,-0.5007 10.72,-1.77014 0,-1.47213 -3.21785,-1.87501 -16.64,-2.08327 -22.79256,-0.35366 -45.12946,-0.83481 -52.15999,-1.12358 -6.32021,-0.25958 -19.12452,-1.44109 -19.49334,-1.79875 -0.0733,-0.0711 -0.0545,-0.2081 0.0418,-0.30442 0.31824,-0.31824 11.18314,-1.69222 17.53154,-2.21709 10.06461,-0.83203 9.98442,-0.82044 9.75125,-1.4111 -0.11218,-0.28416 -0.28425,-1.27267 -0.38238,-2.19667 l -0.17841,-1.68 53.24477,-0.0141 c 57.74288,-0.0154 54.27129,0.0929 56.96569,-1.77431 3.26192,-2.26051 3.37021,-6.93334 0.21776,-9.39587 -1.87085,-1.46144 -3.03107,-1.7055 -7.77869,-1.63648 -2.464,0.0358 -4.86038,0.11277 -5.32528,0.17095 -0.46489,0.0582 -9.03289,0.19254 -19.04,0.29856 -10.0071,0.10604 -26.18672,0.30044 -35.95472,0.432 -46.82869,0.63072 -84.08831,0.093 -82.67068,-1.193 0.65415,-0.5934 20.44778,-3.19968 32.91069,-4.33344 2.992,-0.27216 5.62,-0.55772 5.84,-0.63456 0.29556,-0.10323 0.4,-1.36995 0.4,-4.85168 0,-5.38323 0.44389,-11.79446 1.24402,-17.96751 0.30364,-2.34268 0.44136,-4.32784 0.30604,-4.41147 -0.13532,-0.0836 -1.80254,-0.28865 -3.70493,-0.45559 -2.08513,-0.18298 -4.53644,-0.64398 -6.17201,-1.16073 -1.49222,-0.47147 -3.27158,-0.86972 -3.95414,-0.88501 -1.1938,-0.0268 -1.28901,0.0513 -2.50254,2.05219 -0.69384,1.144 -1.79138,2.63452 -2.43898,3.31225 -1.27488,1.33424 -5.26067,4.14896 -6.29746,4.44724 -2.785,0.80121 -4.0997,1.4991 -4.54119,2.41068 -0.65314,1.34861 -4.60239,5.27719 -7.35947,7.32096 -1.26537,0.93799 -2.48937,1.97005 -2.72,2.29344 -0.23064,0.32343 -2.00334,1.8393 -3.93934,3.36861 -1.936,1.52931 -3.63887,2.8855 -3.78416,3.0137 -0.47503,0.4192 -3.39906,4.33769 -5.18642,6.95027 -1.05473,1.54169 -1.74942,2.89987 -1.74942,3.42022 0,0.86595 0.82372,1.68663 7.53918,7.5113 7.62234,6.61123 17.61616,18.09017 20.57399,23.63133 0.37579,0.704 1.04619,1.856 1.48977,2.56 2.16188,3.43107 5.74773,11.51001 7.70605,17.36179 2.75799,8.24131 2.74463,12.23859 -0.0596,17.83683 -1.59891,3.19197 -2.72279,4.12938 -10.36936,8.64886 -1.848,1.09226 -4.296,2.55962 -5.44,3.26084 -1.144,0.70118 -3.016,1.80464 -4.16,2.45216 -2.17277,1.22976 -12.94029,6.59952 -13.23346,6.59952 -0.1562,0 -3.07918,1.32748 -7.72654,3.50905 -1.056,0.49571 -2.424,1.08275 -3.04,1.30451 -1.99505,0.71828 -13.45669,6.37757 -15.31497,7.56192 -0.99277,0.63271 -2.62343,1.857 -3.62369,2.72061 -2.25282,1.94512 -2.99363,3.78688 -2.73021,6.78778 0.47385,5.39811 1.26892,10.01516 1.93267,11.22326 0.88899,1.61805 3.14512,3.31926 5.71758,4.31133 5.23731,2.01971 6.65863,3.372 6.6586,6.33517 l -1e-5,1.52636 h 90.71996 c 49.89597,0 90.71997,-0.0817 90.72,-0.1815 z M 300,447.31398 c -3.02517,-0.2377 -11.09859,-1.02429 -18.00138,-1.75389 -1.10076,-0.11635 -2.2498,-0.39322 -2.55341,-0.6152 -0.482,-0.35245 -0.37018,-0.42819 0.88138,-0.59696 0.78837,-0.10634 3.51442,-0.48762 6.05788,-0.8473 5.32996,-0.75376 10.55884,-1.36582 16.53754,-1.9358 4.9318,-0.47018 6.2309,-0.18893 7.25903,1.57145 0.91217,1.56189 0.54117,2.91735 -1.04657,3.82371 -1.40275,0.80077 -2.77244,0.85386 -9.13447,0.35399 z M 228.9904,343.2959 c 0.51695,-0.99357 0.5961,-2.68759 0.13877,-2.97024 -0.35826,-0.22141 -2.24917,3.75885 -2.24917,4.73437 0,0.62345 0.0358,0.61808 0.8304,-0.12426 0.45672,-0.42669 1.03272,-1.16464 1.28,-1.63987 z m -7.76923,1.40909 c 0.28621,-0.31626 1.22407,-1.86426 2.08413,-3.44 4.07184,-7.46013 5.45313,-9.68612 7.83414,-12.625 2.92418,-3.60931 5.37196,-5.60767 9.09794,-7.42755 2.72027,-1.32868 4.07724,-1.76092 7.92877,-2.52563 3.76961,-0.74844 7.1083,-1.85277 8.07173,-2.66986 0.23122,-0.1961 -3.6187,-9.85394 -4.84123,-12.14462 -0.46016,-0.86221 -0.83665,-1.75371 -0.83665,-1.98111 0,-1.36988 -2.00892,-0.55869 -2.8891,1.16661 -0.752,1.47404 -0.70233,3.34761 0.21132,7.97189 0.44604,2.25756 0.39295,3.85047 -0.12832,3.85012 -0.47672,-3.2e-4 -3.06995,-3.31649 -3.47082,-4.4384 -0.22825,-0.63879 -0.42352,-2.02544 -0.43394,-3.08144 -0.0228,-2.31183 -0.31124,-2.91731 -1.16626,-2.44826 -0.33158,0.18191 -1.46688,0.57776 -2.52288,0.87968 -1.056,0.30192 -2.03776,0.65132 -2.18169,0.77645 -0.2342,0.20361 0.17215,2.60412 1.05495,6.23213 0.45558,1.87223 0.40057,4.18035 -0.10971,4.60385 -0.34322,0.28485 -0.71147,0.0639 -1.72403,-1.03465 -1.82748,-1.98258 -2.04351,-2.51636 -2.3073,-5.70085 -0.12929,-1.56083 -0.29664,-2.89944 -0.37188,-2.97468 -0.0753,-0.0752 -1.28511,0.2658 -2.68858,0.75788 l -2.55176,0.89469 0.0942,1.40688 c 0.0518,0.77378 0.37582,2.51087 0.72,3.86019 0.75806,2.97193 0.7816,4.08096 0.11964,5.63696 l -0.50613,1.18973 -1.43247,-1.6 -1.43247,-1.6 0.0986,-4.63139 c 0.0921,-4.32453 0.0586,-4.63937 -0.50478,-4.75182 -0.49634,-0.0991 -0.57518,0.0271 -0.44438,0.71138 0.19389,1.01428 -0.67932,1.18683 -0.94105,0.18596 -0.14766,-0.56467 -0.35511,-0.62397 -1.65004,-0.47173 -0.81463,0.0958 -3.27684,0.38641 -5.47159,0.64586 -2.19474,0.25946 -4.13746,0.47174 -4.31715,0.47174 -0.49593,0 4.82643,-3.49267 6.84936,-4.49473 0.97803,-0.48447 3.43424,-1.41628 5.45824,-2.07069 4.10738,-1.32803 10.00409,-4.00636 12.36769,-5.61751 2.05202,-1.39877 3.93936,-2.95771 3.94654,-3.25985 0.003,-0.13352 -0.34457,-0.63752 -0.77276,-1.12 -1.48886,-1.67761 -2.50308,-3.43159 -2.65976,-4.59975 -0.10562,-0.78747 -0.62026,-1.7041 -1.55968,-2.778 -1.82627,-2.0877 -1.78055,-2.56445 0.11797,-1.23008 0.836,0.58759 2.384,1.37071 3.44,1.74027 2.6566,0.92973 8.88717,2.82413 11.2,3.40536 1.056,0.26538 2.712,0.82385 3.68,1.24105 4.9861,2.14895 5.40199,2.46393 3.25333,2.46393 -0.67467,0 -1.30897,0.0823 -1.40956,0.18289 -0.1006,0.1006 0.5594,0.94172 1.46666,1.86917 0.90726,0.92744 2.71174,2.78217 4.00995,4.12162 2.68225,2.76744 5.68852,4.8983 9.64706,6.8379 3.47364,1.70201 8.22962,2.96696 10.35281,2.75354 0.85814,-0.0863 2.94614,0.0215 4.64,0.23956 2.46863,0.31773 3.42898,0.60369 4.83975,1.44108 0.968,0.57459 3.344,1.87358 5.28,2.88664 1.936,1.01307 4.37663,2.39672 5.42362,3.07477 1.047,0.67805 2.08948,1.23283 2.31663,1.23283 0.22716,0 1.31453,-0.35352 2.41638,-0.7856 4.1877,-1.64216 6.86925,-2.07253 10.36644,-1.66374 4.07984,0.4769 9.10957,-0.88101 17.55692,-4.73993 1.8016,-0.823 4.39344,-2.04805 10.08,-4.76435 4.31856,-2.06286 11.02583,-5.67908 11.69824,-6.30711 0.49024,-0.45787 0.75076,-0.52228 1.02071,-0.25234 0.26992,0.26993 0.60742,0.15631 1.32221,-0.44514 0.52787,-0.44417 2.01254,-1.12575 3.29929,-1.51461 2.62058,-0.79196 5.69968,-2.52004 6.4297,-3.60853 0.26509,-0.39526 0.94355,-1.22265 1.50771,-1.83865 0.56413,-0.616 2.1127,-2.7597 3.44125,-4.76377 2.78659,-4.20351 3.86525,-5.34433 8.29843,-8.77685 3.86928,-2.99588 4.67616,-3.81382 4.5287,-4.59084 -0.27062,-1.42592 -3.78662,-0.61334 -6.85347,1.58391 -2.87517,2.05993 -5.90928,3.83769 -6.14592,3.60105 -0.40009,-0.40009 1.68637,-3.83387 3.52176,-5.7959 1.01101,-1.0808 3.22893,-2.95089 4.92867,-4.15575 2.99767,-2.12488 4.27904,-3.53508 4.28154,-4.7119 0.003,-1.18587 -1.06909,-1.00967 -4.30976,0.70868 -4.57482,2.42575 -8.40346,4.97673 -10.2048,6.79933 -1.76013,1.78092 -3.08426,2.74196 -3.08426,2.23854 0,-0.18542 0.84432,-1.46198 1.87629,-2.83681 1.03197,-1.37483 2.1041,-2.94534 2.38253,-3.49001 0.52179,-1.02077 5.48666,-5.88968 6.00573,-5.88968 0.16029,0 0.72419,-0.59742 1.25315,-1.32759 0.73898,-1.02014 0.87856,-1.42773 0.60282,-1.76 -0.60218,-0.72558 -1.63629,-0.49595 -4.62071,1.02604 -4.22182,2.15305 -6.60077,4.29929 -10.50985,9.48183 -2.15152,2.85238 -4.0792,4.73972 -4.84109,4.73972 -0.58208,0 -0.63552,0.32501 0.49113,-2.98747 2.77184,-8.14943 -0.90835,-9.8025 -3.87478,-1.74047 -0.53587,1.45637 -1.27203,3.43994 -1.6359,4.40794 -0.56288,1.49738 -0.65466,2.41801 -0.61504,6.16988 0.0415,3.93146 -0.0141,4.43325 -0.51386,4.62526 -0.48278,0.18556 -0.45808,0.23959 0.17846,0.39012 1.27696,0.30198 0.92432,0.7968 -0.73888,1.03684 -0.88,0.127 -2.69305,0.58804 -4.02902,1.02453 -5.64051,1.8429 -12.50912,2.29698 -24.93097,1.64818 -6.53428,-0.3413 -9.678,0.32597 -15.91975,3.37904 -1.80385,0.88233 -3.42385,1.51517 -3.6,1.40631 -0.54135,-0.33458 -0.3553,-0.80016 0.31975,-0.80016 0.84001,0 0.85375,-1.2081 0.032,-2.81275 -0.68952,-1.34641 -3.96889,-5.15664 -5.35293,-6.21944 -0.50548,-0.38816 -0.99106,-0.79893 -1.07906,-0.91283 -0.65332,-0.84553 -6.32549,-4.01312 -9.18111,-5.12713 -1.43249,-0.55882 -7.13333,-1.51574 -7.31161,-1.22729 -0.0891,0.14418 -0.0398,1.04161 0.10962,1.99429 0.27604,1.76033 -0.009,3.29637 -0.54899,2.96239 -0.16363,-0.10112 -0.54739,-0.86637 -0.8528,-1.70055 -2.01708,-5.50935 -4.26205,-10.34111 -5.93534,-12.77444 -2.08814,-3.03663 -6.60404,-6.77104 -10.67977,-8.83162 -1.61898,-0.81851 -5.68521,-3.51625 -7.13094,-4.73101 -0.22601,-0.18991 -1.05401,-0.62975 -1.84,-0.97743 -1.88113,-0.83211 -1.87697,-1.38203 0.008,-1.09932 0.79055,0.11855 2.41055,0.32987 3.6,0.46961 1.18945,0.13973 2.3944,0.35473 2.67767,0.47777 0.42176,0.18319 0.58362,-0.12499 0.89385,-1.70185 0.52743,-2.68087 1.28807,-5.1484 1.58704,-5.1484 0.13811,0 0.40556,0.828 0.59433,1.84 0.18876,1.012 0.58598,2.67346 0.88271,3.69213 0.49872,1.71212 0.71689,1.98564 2.88605,3.61828 1.2906,0.97138 2.43552,1.99801 2.54426,2.28138 0.13132,0.34222 0.30477,0.40817 0.51654,0.19639 0.21177,-0.21176 0.20314,-1.3311 -0.0257,-3.3335 -0.46735,-4.08949 -0.12254,-9.8275 0.73882,-12.29468 0.78767,-2.25614 2.09849,-4.38905 2.59636,-4.22471 0.21217,0.07 0.41391,1.49618 0.51071,3.61024 0.1533,3.34827 0.20804,3.5681 1.30854,5.25447 0.97781,1.49838 5.62413,6.08 6.16585,6.08 0.0983,0 1.44474,1.02319 2.99214,2.27377 2.82148,2.28024 7.44513,4.76623 8.86466,4.76623 0.40331,0 1.17894,-0.15535 1.7236,-0.34522 0.8714,-0.30378 1.035,-0.56052 1.36256,-2.13837 0.20474,-0.98624 1.23652,-3.59479 2.29284,-5.79678 1.05633,-2.20199 2.01394,-4.65972 2.12802,-5.46162 l 0.20742,-1.45801 2.87718,-0.16 c 2.83188,-0.15749 2.8763,-0.1726 2.82108,-0.96 -0.0309,-0.44 -0.30888,-3.27761 -0.61784,-6.3058 -0.60949,-5.97388 -0.65374,-5.64548 1.1339,-8.4142 0.91802,-1.42185 0.93005,-1.50092 0.95489,-6.27328 0.0245,-4.70348 0.004,-4.85601 -0.75956,-5.68 -0.4316,-0.4657 -1.02639,-0.84672 -1.32175,-0.84672 -0.29537,0 -2.46668,-0.648 -4.82514,-1.44 -2.35846,-0.792 -4.72255,-1.44 -5.25353,-1.44 -1.23327,0 -2.45325,1.27587 -2.71462,2.83897 -0.10678,0.63856 -0.33431,1.62035 -0.50565,2.18175 -0.17132,0.5614 -0.28614,1.2094 -0.25514,1.44 0.12944,0.96276 -0.11313,1.22545 -2.01945,2.187 -1.1,0.55483 -2.39918,1.38606 -2.88706,1.84716 -0.75163,0.71038 -2.67209,3.6494 -3.07448,4.70512 -0.36628,0.96093 -1.18098,1.44 -2.44888,1.44 -1.61876,0 -2.04508,-0.43287 -2.25524,-2.28986 -0.28681,-2.53425 -1.05432,-4.5629 -2.19063,-5.79014 -0.97286,-1.05072 -1.29366,-1.2 -2.57866,-1.2 -0.80716,0 -1.81353,0.22668 -2.23638,0.50374 -2.16045,1.41558 -3.01871,6.32421 -1.77389,10.14543 0.9978,3.06295 0.87207,3.23722 -2.16041,2.99415 -1.36091,-0.10908 -3.73076,-0.0759 -5.26635,0.0737 l -2.79199,0.272 -3.00368,2.87154 c -1.65203,1.57935 -3.67133,3.29183 -4.48734,3.8055 -0.816,0.51368 -2.16795,1.36993 -3.00433,1.90277 -0.83638,0.53284 -2.45668,1.28005 -3.60068,1.66045 -1.144,0.38041 -2.656,0.97234 -3.36,1.31539 -0.704,0.34306 -2.864,1.14839 -4.8,1.78964 -1.936,0.64124 -3.97377,1.37736 -4.52837,1.63581 -0.55459,0.25845 -1.15631,0.46991 -1.33714,0.46991 -0.18083,0 -0.51907,0.18423 -0.75164,0.40941 -0.23257,0.22518 -1.1066,0.83718 -1.94228,1.36 -2.39045,1.49552 -2.1019,1.67553 1.7322,1.08065 1.50492,-0.23349 2.36193,-0.24336 2.57565,-0.0296 0.42863,0.42863 -0.40952,0.84695 -2.62842,1.31186 -1.43661,0.30099 -3.74113,1.2402 -6.2814,2.55996 -1.81355,0.94221 -5.47134,3.70835 -7.18065,5.43024 -1.66269,1.67492 -6.69795,8.55636 -6.69795,9.15374 0,0.0724 -0.41675,0.7509 -0.9261,1.50772 -1.4628,2.17351 -3.38023,6.21648 -4.59848,9.69605 -2.26478,6.46863 -4.95338,15.35207 -5.66568,18.72 -0.20472,0.968 -0.71366,3.272 -1.13097,5.12 -0.41731,1.848 -0.87591,4.008 -1.01912,4.8 -0.20805,1.15059 -0.40446,1.46048 -0.9773,1.5419 -0.88052,0.12515 -2.26544,1.48042 -3.94204,3.85764 -0.6984,0.99025 -1.76938,2.44846 -2.37995,3.24046 -1.55527,2.01737 -2.77597,4.40924 -2.65915,5.21036 0.0543,0.37264 0.81879,1.23383 1.69879,1.91376 1.72818,1.3353 5.96989,4.53751 8.8,6.64346 0.968,0.72029 4.05062,3.02928 6.85028,5.13104 2.79966,2.10176 5.27516,3.82137 5.50112,3.82137 0.64758,0 0.78778,-0.44988 1.10961,-3.56054 0.16606,-1.60515 0.53117,-3.80067 0.81134,-4.87894 0.49409,-1.9016 0.48174,-3.28196 -0.0648,-7.24051 l -0.19882,-1.44 1.32621,2.4 c 2.92014,5.28447 2.75177,4.56774 2.68728,11.43999 -0.0605,6.44596 0.0527,6.94007 1.27898,5.585 z m 88.03295,-32.18515 c -1.59823,-0.22834 -3.07659,-0.52068 -3.28522,-0.64962 -0.49978,-0.30888 -0.15321,-0.85016 0.40676,-0.63528 0.40288,0.1546 12.52655,-1.09464 17.58315,-1.8118 3.94886,-0.56004 7.62237,-1.61972 12.94221,-3.73337 2.87158,-1.14091 5.28518,-2.01023 5.36361,-1.93182 0.23293,0.23296 -5.83347,3.2674 -9.62464,4.81428 -1.936,0.78993 -5.91727,2.02664 -8.84732,2.74825 -6.17828,1.5216 -10.04852,1.84088 -14.53855,1.19936 z m 4.75218,-6.29714 c -1.54482,-0.3049 -4.07073,-1.35974 -4.35415,-1.81832 -0.11567,-0.18715 1.34454,-0.38899 3.7187,-0.51404 5.02431,-0.26463 13.82191,-2.16979 17.91295,-3.87913 2.27939,-0.95239 6.00096,-2.0224 6.15683,-1.7702 0.0864,0.13979 -0.8864,0.89485 -2.16179,1.67791 -9.03331,5.54631 -15.46045,7.4509 -21.27254,6.30378 z M 278.56,304.5216 c -1.408,-0.39352 -3.19744,-1.04776 -3.97653,-1.45388 -1.76144,-0.9182 -4.43238,-3.41962 -6.28996,-5.89075 -1.49822,-1.99307 -1.60566,-3.04042 -0.17841,-1.73911 1.22774,1.11941 3.87039,2.7125 5.38732,3.24771 3.14345,1.10907 9.77079,1.3576 13.66336,0.51239 1.14718,-0.2491 1.38779,-0.16763 3.04,1.0293 2.25366,1.63264 4.85471,4.12068 4.65154,4.44942 -0.0847,0.13699 -0.7443,0.0408 -1.46586,-0.21381 -1.6573,-0.58473 -3.78696,-0.588 -6.57054,-0.0101 -3.99236,0.82888 -5.49656,0.84141 -8.26092,0.0688 z m 16,-13.62241 c -1.232,-0.48226 -3.41457,-1.47586 -4.85016,-2.20801 -1.43558,-0.73215 -2.69132,-1.33118 -2.79052,-1.33118 -0.0992,0 -0.9674,-0.36 -1.92934,-0.8 -0.96193,-0.44 -1.9022,-0.8 -2.08948,-0.8 -0.68509,0 -0.31398,-0.63728 0.66631,-1.14421 0.86712,-0.44841 1.27603,-0.46768 2.94722,-0.13889 2.77204,0.54536 5.23969,1.90385 8.19256,4.51013 2.30976,2.03866 3.03413,2.91438 2.33341,2.82097 -0.132,-0.0176 -1.248,-0.42656 -2.48,-0.90881 z m -72.90314,-5.38987 c -1.90803,-4.25167 -2.28228,-8.72575 -1.09451,-13.08457 0.87062,-3.19496 3.82542,-6.12317 8.31799,-8.24313 3.04544,-1.43709 3.21996,-0.99284 0.68428,1.74184 -4.76838,5.14262 -5.55237,7.08161 -5.59038,13.82644 -0.0254,4.51435 -0.44182,7.29444 -1.12582,7.51684 -0.19337,0.0629 -0.72957,-0.72797 -1.19156,-1.75742 z m 36.90314,0.66011 c -1.28719,-0.14727 -4.37295,-1.067 -6.23279,-1.85772 -3.56828,-1.51706 -7.54104,-5.44043 -9.11739,-9.00403 -0.74387,-1.68166 -0.79406,-2.45147 -0.29024,-4.45231 0.29154,-1.15781 0.44292,-1.35887 0.8,-1.06252 0.24223,0.20103 0.44042,0.55445 0.44042,0.78536 0,0.61067 3.50564,4.92572 5.1344,6.31988 2.52499,2.16129 6.3449,4.02666 10.0656,4.9153 1.056,0.25222 4.76102,0.65856 8.23339,0.90299 6.07255,0.42747 8.21344,0.81328 6.77873,1.22162 -0.33667,0.0958 -1.11612,0.27359 -1.73212,0.39505 -0.616,0.12146 -1.48,0.41342 -1.92,0.64878 -2.08862,1.11725 -7.85371,1.68029 -12.16,1.1876 z m 10.2131,-17.61365 c -0.42521,-0.48657 -1.17799,-1.42472 -1.67286,-2.08478 -1.35551,-1.80799 -3.93987,-3.60297 -6.62024,-4.59812 -2.30441,-0.85557 -2.63422,-0.89101 -8.28063,-0.88992 l -5.88062,0.001 1.07378,-0.89643 c 1.97013,-1.64474 4.20082,-2.25166 7.68533,-2.09102 2.75407,0.12697 3.34318,0.26982 5.6,1.35791 3.23848,1.56139 5.03712,3.02647 6.23797,5.08112 0.52856,0.90437 1.40141,2.33564 1.93965,3.18059 1.11351,1.748 1.06888,2.25693 -0.0824,0.93951 z m 286.6468,66.24421 c -0.38781,-16.7102 -2.19805,-26.4802 -8.13764,-43.91999 -2.04304,-5.9988 -7.13616,-16.77618 -10.2832,-21.76 -4.81558,-7.62622 -5.18825,-8.15003 -10.35891,-14.56 -0.70985,-0.88 -4.05712,-4.336 -7.43833,-7.68 -5.8306,-5.76641 -12.24269,-11.0058 -16.09012,-13.14738 -0.65942,-0.36706 -2.63731,-1.53553 -4.39532,-2.5966 -7.92925,-4.7858 -20.34071,-10.26222 -27.06583,-11.94251 -12.94096,-3.23332 -20.68403,-4.19014 -32.29056,-3.99019 -8.28969,0.14281 -10.6846,0.33615 -10.37475,0.83752 0.0949,0.15353 0.75818,0.27916 1.47402,0.27916 1.71609,0 12.14393,1.6575 16.18073,2.57193 3.68704,0.83519 4.44832,1.02746 5.04,1.27284 0.352,0.14599 1.072,0.3545 1.6,0.46336 1.54042,0.31758 7.87648,2.39893 9.35651,3.07355 0.74608,0.34008 1.46608,0.61902 1.6,0.61989 0.13392,9.6e-4 2.18749,0.80232 4.56349,1.78102 2.376,0.9787 4.752,1.93438 5.28,2.12374 0.528,0.18936 1.18733,0.5399 1.46519,0.77898 0.27785,0.23908 0.61433,0.43469 0.74771,0.43469 0.78889,0 11.57312,6.44919 16.9871,10.15864 9.61629,6.58871 20.46864,16.35439 27.82784,25.04136 8.69066,10.25865 16.22787,22.39036 21.86915,35.2 5.12196,11.63035 9.4904,26.37219 11.15789,37.6534 0.47693,3.22663 1.00586,5.86659 1.17543,5.86659 0.19497,0 0.23526,-3.14611 0.1096,-8.56 z m -207.98135,3.90781 c 1.70298,-0.71155 2.32144,-1.38758 2.32144,-2.53753 0,-1.10692 -1.19833,-2.48845 -2.5,-2.88224 -1.54963,-0.46877 -47.88269,2.40665 -48.48502,3.00899 -0.32281,0.32281 1.55484,0.50739 11.78503,1.15856 14.93833,0.95088 21.74185,1.2888 34.01027,1.68925 0.92966,0.0304 2.22038,-0.16634 2.86828,-0.43703 z M 237.28,335.80892 c 1.42531,-0.52025 2.21908,-1.12307 3.28439,-2.49417 0.56894,-0.73226 0.63997,-1.02032 0.34055,-1.38109 -0.53002,-0.63863 -2.02957,-1.37367 -2.80246,-1.37367 -1.02924,0 -4.81547,4.43709 -4.82085,5.64954 -0.002,0.46918 2.22755,0.24579 3.99837,-0.40061 z m 11.01592,-8.83379 c 2.48562,-1.7344 2.53535,-2.16057 0.18302,-1.56825 -0.77129,0.1942 -2.14094,0.35312 -3.04366,0.35312 -1.18941,0 -2.03146,0.22864 -3.0583,0.8304 -0.77934,0.45673 -1.41698,0.94515 -1.41698,1.08537 0,0.28637 2.53126,0.87037 4,0.92288 0.67291,0.024 1.6705,-0.46144 3.33592,-1.62352 z M 144.64,322.06796 c -2.552,-0.22524 -6.584,-0.57804 -8.96,-0.78396 -4.64331,-0.40247 -11.65245,-1.18496 -13.38391,-1.49419 -0.61486,-0.10981 -0.9447,-0.30921 -0.78149,-0.47242 0.27006,-0.27006 6.90132,-1.07521 15.4454,-1.87534 2.2,-0.20602 4.36,-0.42482 4.8,-0.48621 0.96531,-0.13469 6.89718,-0.69186 10.29837,-0.96731 1.96721,-0.15931 2.69125,-0.0886 3.62397,0.35402 2.46268,1.16862 2.90587,3.41425 1.01569,5.14647 -1.16725,1.0697 -1.17234,1.07091 -4.29333,1.02973 -1.71859,-0.0227 -5.2127,-0.22554 -7.7647,-0.45079 z m 18.08,-18.87105 c -3.872,-0.21722 -9.488,-0.48937 -12.48,-0.60477 -5.11865,-0.19744 -7.51609,-0.31886 -13.28,-0.67258 -1.32,-0.081 -4.272,-0.23109 -6.56,-0.33353 -2.288,-0.10243 -6.464,-0.31744 -9.28,-0.47779 -21.47835,-1.22304 -25.061134,-1.54837 -22.240002,-2.01946 1.010989,-0.16883 12.472982,-0.99038 25.120002,-1.80052 2.64,-0.16912 6.744,-0.45563 9.12,-0.6367 2.376,-0.18107 8.784,-0.61198 14.24,-0.95758 5.456,-0.34559 12.728,-0.8083 16.16,-1.02823 3.432,-0.21994 7.032,-0.39518 8,-0.38942 3.28067,0.0195 5.11657,1.74123 5.1188,4.80051 0.002,1.97496 -0.67347,2.97303 -2.66108,3.93521 -1.54729,0.74903 -1.27942,0.74463 -11.25772,0.18486 z"
         id="path955" />
    </g>
  </g>
</svg>
