<?xml version="1.0" encoding="UTF-8"?>
<svg version="1.1" viewBox="0 0 655.36 655.36" xmlns="http://www.w3.org/2000/svg">
 <g transform="translate(-.8769 .7703)">
  <g transform="translate(.8769 -.7703)">
   <path d="m230.56 497.61c-32.779-0.2607-63.298-0.66422-85.92-1.136-4.312-0.0899-16.192-0.30515-26.4-0.47821-10.208-0.17308-20.432-0.38377-22.72-0.46819-2.288-0.0845-6.752-0.24038-9.92-0.34653-7.0754-0.23705-22.013-1.0368-25.934-1.3884-2.8568-0.25619-4.6345-0.81888-4.1002-1.2978 0.49804-0.44646 8.5619-1.104 21.954-1.7901 2.244-0.11498 4.08-0.27485 4.08-0.35523 0-0.0804-0.84868-1.1544-1.886-2.3867-2.2173-2.6342-2.6383-3.7868-4.4862-12.283-1.4393-6.6175-1.8844-7.918-4.4364-12.961-2.4364-4.815-3.0867-6.9159-2.8501-9.2079 0.23343-2.2617 1.826-5.5263 3.2809-6.7256 1.3036-1.0745 6.9401-3.9111 9.2862-4.6732 2.2557-0.7328 6.8926-3.4347 9.5716-5.5772 3.1666-2.5325 8.4512-7.9987 11.023-11.402 1.8714-2.4763 3.2383-4.4337 7.5759-10.849 0.92255-1.3644 4.4276-4.4284 6.8952-6.0276 2.2641-1.4673 5.152-2.7214 8.266-3.5895 1.144-0.31894 2.7056-0.77539 3.4703-1.0143 0.76468-0.23894 3.4638-0.67718 5.9981-0.97388 5.8213-0.68148 6.1743-0.87952 7.7796-4.3646 0.66733-1.4488 1.583-3.4262 2.0348-4.3942 0.4518-0.968 1.3402-3.056 1.9741-4.64s1.3047-3.1464 1.4906-3.472c0.18586-0.32563 0.24983-1.1176 0.14214-1.76-0.17725-1.0573 0.0166-1.4864 2.0455-4.528 2.7836-4.1729 3.0243-4.5162 4.8136-6.8656 0.7982-1.0481 2.1713-2.9541 3.0513-4.2357 0.88-1.2816 2.2312-3.1263 3.0027-4.0993 1.4008-1.7668 1.403-1.7738 1.6549-5.2042 0.71731-9.7711 2.3695-15.857 5.884-21.675 2.1624-3.5796 6.7982-8.193 12.941-12.878 0.97943-0.74707 2.2957-1.8991 2.9251-2.56 0.62937-0.6609 1.6747-1.6018 2.323-2.0909 0.64828-0.48908 1.9251-2.0011 2.8373-3.36s2.4986-3.7276 3.5252-5.2638c3.036-4.543 4.7987-8.7825 6.489-15.607 0.49506-1.9987 0.98312-3.6376 3.5571-11.945 1.8356-5.9242 6.3246-15.524 9.632-20.599 3.21-4.9253 8.0984-10.327 10.829-11.966 0.88-0.52821 2.818-1.813 4.3067-2.8552 4.1315-2.8922 9.1123-5.1791 16.653-7.6461 10.478-3.4279 14.811-7.5054 16.147-15.198 0.27233-1.5671 0.57353-5.7431 0.66933-9.28 0.0958-3.5369 0.3316-7.3667 0.52401-8.5107 0.99447-5.9128 3.0656-9.4623 6.8965-11.819 0.84208-0.51814 1.9612-1.5288 2.4869-2.246 1.6375-2.2338 5.7216-4.6483 8.7454-5.1702 3.8649-0.66705 10.536-0.26406 14.45 0.87297 2.6631 0.77352 7.431 2.6058 11.36 4.3656 1.936 0.86714 5.104 2.0664 7.04 2.665s4.168 1.3614 4.96 1.6951c0.792 0.3337 2.52 0.94655 3.84 1.3619l2.4 0.75515 0.70099 1.92c0.8431 2.3093 0.91165 4.3613 0.23318 6.9796-0.86713 3.3464-2.2327 5.2948-5.3912 7.6923-0.89263 0.67754-1.695 1.301-1.783 1.3856-0.088 0.0845-0.232 2.9182-0.32 6.297l-0.16 6.1433-2.1787 3.3921 0.2149 6.4663c0.16607 4.9965 0.12272 6.5892-0.19066 7.0067-0.47918 0.63843-2.8402 1.5172-4.0762 1.5172-0.4786 0-1.1002 0.25419-1.3814 0.56487-0.86322 0.95384-3.8151 7.518-3.9911 8.8751-0.21639 1.6683-1.0982 3.3915-2.5707 5.0233-1.9558 2.1674-4.1645 2.6902-7.0785 1.6756-2.0256-0.70536-7.018-3.3075-8.4352-4.3966-1.5145-1.1639-2.4278-0.99532-4.134 0.76285l-1.2269 1.2642 1.6881 1.9953c0.92848 1.0974 2.3754 2.891 3.2155 3.9856 1.3977 1.8214 2.5062 2.6273 4.2248 3.0714 2.7467 0.70978 5.5464 1.6061 6.08 1.9465 0.352 0.22458 1.317 0.66445 2.1443 0.9775s1.7497 0.84031 2.0496 1.1717c0.29989 0.33138 0.65529 0.60251 0.78978 0.60251s0.98612-1.5223 1.8925-3.3828c1.6522-3.3914 8.4723-15.304 10.327-18.039 2.3421-3.4529 7.9762-10.847 10.011-13.138 2.8397-3.1976 9.6054-10.369 11.04-11.702 0.96006-0.89213 3.4016-3.0162 5.4256-4.7201s3.9155-3.2975 4.2033-3.5412c0.97533-0.82607 6.511-4.898 7.4767-5.4998 0.528-0.32899 1.464-0.98453 2.08-1.4568 1.3944-1.069 10.052-6.2415 12.64-7.5517 2.5737-1.3031 9.9243-4.6814 11.52-5.2946 1.4088-0.54139 4.2627-1.679 5.76-2.2961 3.8627-1.5919 17.683-5.2785 22.973-6.1279 10.883-1.7478 14.41-2.075 23.747-2.2035 13.714-0.1887 22.248 0.74836 35.84 3.935 15.41 3.613 32.372 11.007 45.12 19.667 1.76 1.1958 4.1953 2.8292 5.4118 3.6298 3.4248 2.2539 11.333 8.7061 14.268 11.642 0.088 0.088 0.78195 0.70862 1.5421 1.3792 1.2586 1.1102 2.9921 2.9114 8.5407 8.8744 7.3379 7.8859 15.858 20.545 21.802 32.395 1.6218 3.2328 6.602 15.272 8.1702 19.751 3.0589 8.7362 5.7893 21.342 7.003 32.332 0.96476 8.7358 1.1427 18.283 0.48281 25.908-1.6703 19.301-5.0596 33.705-11.784 50.08-1.0266 2.4999-4.8668 10.365-6.167 12.63-3.1074 5.414-4.8875 8.4086-6.1882 10.41-1.616 2.4865-6.126 8.8697-6.4437 9.12-0.11168 0.088-0.83191 1.024-1.6005 2.08-0.7686 1.056-1.7157 2.28-2.1047 2.72s-1.8273 2.096-3.1962 3.68c-3.6816 4.2598-14.896 14.991-18.391 17.6-0.47168 0.352-2.5694 1.9286-4.6616 3.5034-7.8058 5.8758-17.946 12.171-23.324 14.48-0.88 0.37785-3.0095 1.346-4.7322 2.1516-1.7227 0.8055-3.2003 1.4645-3.2835 1.4645s-0.76167 0.28067-1.5078 0.62375c-4.8198 2.2162-16.07 5.8191-20.518 6.571-0.68292 0.11546-1.1149 0.32612-0.96 0.46813 0.15494 0.14205 8.2737 0.35178 18.042 0.46605 9.768 0.1143 23.736 0.34109 31.04 0.50397s17.672 0.38118 23.04 0.48512c5.368 0.10393 10.12 0.24662 10.56 0.31709 0.44 0.0705 3.464 0.21561 6.72 0.32249 3.256 0.10691 8.08 0.41523 10.72 0.68519 2.64 0.26995 5.736 0.58675 6.88 0.70403 1.144 0.11725 2.08 0.35718 2.08 0.53318 0 0.47194-2.0292 1.0809-3.68 1.1044-0.792 0.0112-2.304 0.15264-3.36 0.31415-1.056 0.16153-5.376 0.45235-9.6 0.6463s-10.632 0.49034-14.24 0.65863c-3.608 0.16828-14.048 0.45289-23.2 0.63241s-18.44 0.39213-20.64 0.47242c-2.2 0.0803-15.664 0.30336-29.92 0.49571s-26.928 0.40214-28.16 0.46621c-4.8679 0.25305-181.04 0.40441-209.28 0.17977zm-94.4-8.1672c2.816-0.0806 13.04-0.22489 22.72-0.32064 21.236-0.21001 31.84-0.47251 31.84-0.78809 0-0.12916-0.30332-0.50912-0.67405-0.84439-0.87127-0.78797-1.6623-2.3581-2.8713-5.6992-0.53648-1.4826-1.478-3.5302-2.0922-4.5503-1.1032-1.8321-4.3561-5.0856-7.5823-7.5838-2.7861-2.1574-4.6845-4.1247-5.8964-6.1105-1.0039-1.645-1.175-2.2224-1.3004-4.3899-0.18342-3.1684 0.28188-4.9971 1.8644-7.3276 1.4095-2.0756 3.3527-3.4195 7.5307-5.2081 5.035-2.1555 7.5925-3.7087 12.459-7.5665 1.2308-0.97562 2.76-2.1339 3.3984-2.5739 4.1356-2.8507 7.3634-6.6581 13.293-15.68 2.5832-3.9305 7.7799-8.3133 11.791-9.9444 0.704-0.28631 2.288-0.99223 3.52-1.5687l2.24-1.0482-1.1492-0.40499c-0.63208-0.22275-2.1945-0.99735-3.4721-1.7213-2.9657-1.6806-3.7615-1.8876-4.3199-1.1238-0.35121 0.48029-0.56553 0.52374-1.187 0.24057-2.2744-1.0363-15.632-12.153-15.632-13.009 0-0.183 0.68908-1.4953 1.5313-2.9162 0.84222-1.4209 1.8101-3.2315 2.1508-4.0235s1.4516-2.9487 2.4687-4.7926c1.12-2.0304 1.8471-3.7341 1.8439-4.32l-5e-3 -0.96736-0.67621 1.12c-1.3312 2.2048-6.0416 9.1723-8.1128 12-1.1602 1.584-2.8274 3.888-3.7049 5.12-1.4976 2.1026-2.1322 2.9629-4.1572 5.6354-0.452 0.59654-1.8492 2.4526-3.1048 4.1246-3.2409 4.3156-4.8467 6.001-5.1894 5.4465-0.32562-0.52688-1.0808 5e-3 -4.964 3.4968-1.408 1.266-4.256 3.5983-6.3289 5.1828-2.0729 1.5845-4.3049 3.4786-4.96 4.2092-5.052 5.6334-6.3559 6.6903-9.8525 7.9862-2.8668 1.0624-7.0334 2.3725-8.454 2.6582-1.239 0.24912-7.5611 3.2663-14.885 7.1036-2.64 1.3833-8.544 4.441-13.12 6.7948-4.576 2.3538-9.256 4.8464-10.4 5.5389-4.1878 2.5352-8.7458 6.74-9.1533 8.444-0.11823 0.4944-0.33452 1.0521-0.48064 1.2394-0.7686 0.98509-1.1996 10.885-0.58917 13.533 0.58856 2.5525 2.981 4.8498 6.1824 5.9365 4.3592 1.4798 5.8864 3.4543 5.5104 7.1242l-0.21316 2.0806 9.5317-0.19267c5.2424-0.10595 11.836-0.25859 14.652-0.33917zm-45.28-0.13654c0-0.1616 0.07671-0.49373 0.17046-0.73805 0.09375-0.24432-0.19511-0.8681-0.64193-1.3862-0.99332-1.1517-1.2992-2.0193-0.86505-2.4534 0.36173-0.36172 0.83926 0.0725 3.355 3.0504 1.6545 1.9585 2.7911 2.3591 3.4103 1.2022 0.44686-0.83495 0.4929-0.7233-0.94874-2.3004-1.295-1.4167-1.6104-2.2039-0.88-2.1966 0.22 3e-3 1.5939 1.1542 3.053 2.56s2.8455 2.556 3.0808 2.556 0.60694-0.21587 0.82591-0.47971c0.54608-0.65798-0.0322-1.996-1.4612-3.3811-0.60422-0.58563-1.0986-1.2525-1.0986-1.482 0-0.91978 1.066-0.30135 3.4332 1.9917 2.7027 2.618 3.5438 3.0484 4.3608 2.2314 1.1903-1.1903 0.25114-2.8641-1.7583-3.1336-2.1284-0.28547-5.9125-2.4014-7.5589-4.2267-2.6157-2.8998-2.4769-2.2909-2.4769-10.866 0-8.3389 0.1444-9.2902 2.0097-13.24 1.2768-2.7037 7.4341-8.8678 10.465-10.476 4.5641-2.4224 7.1879-3.862 7.8454-4.3047 0.44-0.29622 3.68-2.02 7.2-3.8307 12.239-6.2956 13.134-6.7925 15.553-8.6346 3.5315-2.6896 3.6306-2.7768 6.7176-5.9153 1.5514-1.5773 2.9009-2.7876 2.9989-2.6896 0.098 0.098-0.27771 1.2103-0.8349 2.4718-0.55718 1.2615-0.92578 2.3809-0.8191 2.4876 0.27992 0.2799 6.5383-0.8145 8.0585-1.4092 2.3345-0.91324 4.4657-2.4952 6.6507-4.9365 2.1432-2.3946 2.5204-3.1842 1.7556-3.6752-0.22-0.14124-1.84-0.32972-3.6-0.41888l-3.2-0.16208 2.88-1.4786c1.584-0.81321 4.2042-1.931 5.8227-2.4839s3.6306-1.3003 4.4714-1.6607c2.4471-1.049 5.8589-3.2904 5.7783-3.7962-0.0402-0.25261-0.93699-0.95037-1.9928-1.5506-7.8773-4.478-12.36-7.5823-18.767-12.995-1.4406-1.2171-2.3409-1.775-2.5412-1.5747-0.2936 0.2936-2.582 5.9636-3.1741 7.8646-0.46266 1.4853-3.1304 6.584-4.0711 7.781-0.99388 1.2645-4.5152 3.8118-4.8318 3.4952-0.11274-0.11274 0.15071-0.47328 0.58545-0.80122 0.43474-0.32793 0.71642-0.67024 0.62595-0.7607-0.49603-0.49603-14.172 2.4627-17.609 3.8097-5.4432 2.1332-10.088 6.1244-12.98 11.154-2.8248 4.9124-5.5555 8.4622-9.8362 12.786-2.2979 2.3212-7.3819 6.5943-9.4985 7.9836-2.5566 1.678-7.8816 4.2489-9.7018 4.6839-1.9657 0.46972-4.1649 1.6074-5.7518 2.9753-1.0058 0.86694-1.261 1.3271-1.3948 2.5145-0.19533 1.733 0.46567 3.4485 3.0723 7.9739 2.6668 4.6297 3.773 8.117 4.5175 14.24 1.0067 8.2796 4.4797 13.715 8.876 13.891 0.396 0.016 0.72-0.10336 0.72-0.26496zm-6.7477-32.436c-0.87943-0.6752-1.2523-1.7304-1.2523-3.5442 0-2.1771 0.9259-3.4306 3.3307-4.5094 0.89611-0.40199 2.1819-1.1764 2.8574-1.7209 1.2701-1.0239 2.3698-1.5242 2.6764-1.2175 0.09693 0.0969-1.0018 1.2844-2.4416 2.6389-2.8728 2.7025-3.548 3.717-3.5327 5.3074 0.0112 1.1629 0.72535 2.3524 1.2264 2.0427 0.17555-0.10848 0.42313-0.0291 0.55018 0.17651 0.59224 0.95827-2.3236 1.6641-3.4145 0.8265zm20.828-20.321c0-0.13805 0.396-0.48509 0.88-0.77124 0.484-0.28611 2.032-1.5132 3.44-2.7268 4.1371-3.566 7.2954-5.4737 13.3-8.0335 3.0282-1.291 7.6767-3.7403 9.3583-4.9311 0.49413-0.34992 0.99813-0.53245 1.12-0.40566 0.39688 0.41289-5.1313 5.2543-8.7384 7.6529-4.0693 2.7059-6.7272 4.0924-11.757 6.133-1.9818 0.80407-4.3849 1.883-5.3402 2.3976-1.8025 0.97108-2.2632 1.1104-2.2632 0.68468zm108.29 51.478c0.29905-0.2482 0.50077-0.74596 0.44828-1.1062-0.0768-0.52713-0.48829-0.73411-2.1095-1.0612-1.1077-0.22349-3.1942-1.0214-4.6366-1.7731-4.2821-2.2316-5.8048-4.9128-6.8012-11.975-0.25206-1.7867-0.76491-4.6427-1.1396-6.3466-0.5998-2.7273-0.63558-3.3342-0.29897-5.0714 0.81436-4.2029 4.0534-7.4293 12.019-11.972 2.6107-1.489 14.253-7.2718 23.351-11.599 9.6441-4.5867 12.17-5.959 16.42-8.922 2.5801-1.7987 5.2096-5.2906 6.0118-7.9837 0.27913-0.93702 0.57339-1.6378 0.65391-1.5573 0.0805 0.0805 0.1464 1.3946 0.1464 2.9202 0 2.6807 0.0227 2.7666 0.67857 2.5584 1.0698-0.33952 3.8476-2.2213 4.7598-3.2244 1.1713-1.2881 2.3868-3.6266 2.875-5.5316 0.43506-1.6975 0.28694-2.6854-1.0828-7.2216-2.9246-9.6858-8.5238-21.259-12.209-25.235l-0.79798-0.86106-2.3276 1.5712c-1.2802 0.86416-3.6236 2.4121-5.2076 3.4399-3.6605 2.3751-8.0311 5.872-7.8973 6.3187 0.29098 0.97155 4.0793 5.6625 7.7795 9.633 2.5116 2.6951 3.5822 4.0138 3.2586 4.0138-1.256 0-9.59-5.8428-12.988-9.106-1.0161-0.97574-1.9612-1.774-2.1001-1.774s-0.67555 0.44192-1.1925 0.98202c-0.51693 0.54013-1.7034 1.5715-2.6366 2.2918-1.9541 1.5085-2.07 1.2469 1.6968 3.8283 5.5469 3.8013 8.468 5.8997 9.4909 6.8179 0.58821 0.528 1.9689 1.68 3.0681 2.56s1.9992 1.7238 1.9998 1.875c6.4e-4 0.15127-0.5388 0.192-1.1988 0.0906-0.66-0.10147-3.144-0.27897-5.52-0.39443-3.3968-0.16509-4.9355-0.0946-7.2 0.32979-4.3705 0.81907-7.1307 1.7353-9.5945 3.1846-2.7145 1.5968-6.7625 5.5194-8.1442 7.8918-3.8756 6.6545-5.6904 8.9278-10.573 13.245-3.4915 3.087-4.9511 4.1849-9.437 7.0982-3.844 2.4965-10.201 5.8797-11.049 5.8797-0.42702 0-4.6016 2.7322-5.1093 3.344-0.40611 0.48931-0.49874 2.7795-0.18612 4.6014 0.2873 1.6744 2.5062 4.0531 5.8533 6.2751 1.1878 0.78848 2.6793 1.9074 3.3146 2.4865 2.2348 2.0371 4.6294 5.8486 6.3398 10.092 1.9076 4.7319 3.3077 6.8236 5.2225 7.802 2.3568 1.2043 7.9154 2.1835 11.954 2.106 2.5023-0.048 3.7124-0.20151 4.0954-0.51939zm-25.631-28.988c-1.3695-0.95923-1.6967-3.842-0.68749-6.057 0.36384-0.79853 1.1765-1.4166 4.3731-3.3259 2.9409-1.7565 2.9777-1.4697 0.22558 1.7558-2.4013 2.8143-2.7805 3.9751-1.921 5.8811 0.46016 1.0204 0.48983 1.3425 0.16025 1.7396-0.51296 0.61808-1.2738 0.62032-2.1504 6e-3zm20.084-21.839c0.0353-0.42537 4.5447-3.2149 7.1157-4.4018 1.3726-0.6336 4.5406-1.7295 7.04-2.4353 2.4994-0.7058 5.8046-1.8502 7.3448-2.5431 1.5402-0.69289 2.8567-1.2598 2.9255-1.2598 0.0688 0 1.3025-0.66211 2.7415-1.4714 1.439-0.80925 2.7146-1.3729 2.8345-1.2525 0.25779 0.25872-3.5132 3.8433-6.0219 5.7243-0.968 0.72579-1.9502 1.4995-2.1826 1.7194-1.4943 1.4135-6.7385 3.6219-10.393 4.3768-1.3404 0.27687-3.5424 0.50339-4.8934 0.50339-2.3542 0-4.7507 0.45044-5.3946 1.014-0.37873 0.33145-1.1429 0.34928-1.1161 0.0259zm191.98 51.098c3e-5 -0.0998-1.1159-0.44301-2.4799-0.76263-3.1032-0.72723-8.5682-2.3387-9.84-2.9016-0.528-0.23369-1.392-0.53014-1.92-0.65881-1.1378-0.27728-6.5799-2.3398-7.04-2.6681-0.176-0.1256-1.328-0.64179-2.56-1.1471-4.3369-1.7787-12.519-5.8814-16-8.0228-1.936-1.191-4.672-2.861-6.08-3.7112l-2.56-1.5458-4.64-6e-3c-2.552-3e-3 -7.52-0.14793-11.04-0.32144-3.52-0.17347-9.568-0.45987-13.44-0.63641-3.872-0.17658-11.576-0.53399-17.12-0.79428-5.544-0.26028-13.392-0.61696-17.44-0.79257-4.048-0.17559-8.512-0.39719-9.92-0.49239s-4.936-0.30822-7.84-0.4734c-10.165-0.57812-16.484-1.0098-16.934-1.1567-1.0788-0.35264 0.38567-0.78653 3.669-1.087 1.9275-0.17638 4.2245-0.39046 5.1045-0.47571 2.952-0.28605 14.965-1.1169 23.2-1.6046 7.8741-0.46633 11.661-0.70163 33.12-2.058 5.456-0.34487 11.792-0.73319 14.08-0.86291 2.288-0.12976 4.256-0.2456 4.3734-0.25748 0.7216-0.0729 0.33197-0.62374-1.7324-2.4492-3.4025-3.0087-10.549-10.284-13.166-13.403-6.0402-7.1988-12.059-15.625-14.837-20.774-0.62786-1.1634-1.3213-2.3312-1.541-2.5952s-1.784-3.288-3.4762-6.72c-1.6922-3.432-3.2169-6.49-3.3883-6.7956-0.17135-0.30563-0.31155-0.82272-0.31155-1.1491 0-0.55472 0.48521-0.60742 7.44-0.80825 7.4499-0.21514 35.098-1.2961 42.32-1.6546 2.112-0.10484 6.648-0.31421 10.08-0.46525 22.677-0.99805 31.552-1.5216 31.231-1.8424-0.39683-0.39684-24.403-1.4711-51.871-2.3213-5.456-0.16887-11.72-0.38013-13.92-0.46948-11.605-0.47126-17.308-0.67884-26.56-0.96668-3.256-0.10132-6.856-0.2586-8-0.34951-5.2565-0.41769-8.96-0.88352-8.96-1.1269 0-0.14643 0.612-0.42682 1.36-0.62311 0.748-0.19632 2.296-0.62105 3.44-0.94387 1.7755-0.50105 3.5188-0.91017 7.6312-1.7909 0.8626-0.18473 0.85171-0.28873-0.46187-4.409-0.44116-1.3838-0.91688-3.1303-1.0572-3.8812l-0.25504-1.3652 1.6314-0.19603c0.89729-0.10781 3.2874-0.19866 5.3114-0.20189 2.024-3e-3 6.416-0.14067 9.76-0.30547s10.04-0.39629 14.88-0.51443c4.84-0.11815 8.872-0.25472 8.96-0.30352s2.896-0.17984 6.24-0.29127c9.6307-0.32083 10.72-0.5007 10.72-1.7701 0-1.4721-3.2178-1.875-16.64-2.0833-22.793-0.35366-45.129-0.83481-52.16-1.1236-6.3202-0.25958-19.125-1.4411-19.493-1.7988-0.0733-0.0711-0.0545-0.2081 0.0418-0.30442 0.31824-0.31824 11.183-1.6922 17.532-2.2171 10.065-0.83203 9.9844-0.82044 9.7512-1.4111-0.11218-0.28416-0.28425-1.2727-0.38238-2.1967l-0.17841-1.68 53.245-0.0141c57.743-0.0154 54.271 0.0929 56.966-1.7743 3.2619-2.2605 3.3702-6.9333 0.21776-9.3959-1.8708-1.4614-3.0311-1.7055-7.7787-1.6365-2.464 0.0358-4.8604 0.11277-5.3253 0.17095-0.46489 0.0582-9.0329 0.19254-19.04 0.29856-10.007 0.10604-26.187 0.30044-35.955 0.432-46.829 0.63072-84.088 0.093-82.671-1.193 0.65415-0.5934 20.448-3.1997 32.911-4.3334 2.992-0.27216 5.62-0.55772 5.84-0.63456 0.29556-0.10323 0.4-1.37 0.4-4.8517 0-5.3832 0.44389-11.794 1.244-17.968 0.30364-2.3427 0.44136-4.3278 0.30604-4.4115-0.13532-0.0836-1.8025-0.28865-3.7049-0.45559-2.0851-0.18298-4.5364-0.64398-6.172-1.1607-1.4922-0.47147-3.2716-0.86972-3.9541-0.88501-1.1938-0.0268-1.289 0.0513-2.5025 2.0522-0.69384 1.144-1.7914 2.6345-2.439 3.3122-1.2749 1.3342-5.2607 4.149-6.2975 4.4472-2.785 0.80121-4.0997 1.4991-4.5412 2.4107-0.65314 1.3486-4.6024 5.2772-7.3595 7.321-1.2654 0.93799-2.4894 1.97-2.72 2.2934-0.23064 0.32343-2.0033 1.8393-3.9393 3.3686s-3.6389 2.8855-3.7842 3.0137c-0.47503 0.4192-3.3991 4.3377-5.1864 6.9503-1.0547 1.5417-1.7494 2.8999-1.7494 3.4202 0 0.86595 0.82372 1.6866 7.5392 7.5113 7.6223 6.6112 17.616 18.09 20.574 23.631 0.37579 0.704 1.0462 1.856 1.4898 2.56 2.1619 3.4311 5.7477 11.51 7.706 17.362 2.758 8.2413 2.7446 12.239-0.0596 17.837-1.5989 3.192-2.7228 4.1294-10.369 8.6489-1.848 1.0923-4.296 2.5596-5.44 3.2608-1.144 0.70118-3.016 1.8046-4.16 2.4522-2.1728 1.2298-12.94 6.5995-13.233 6.5995-0.1562 0-3.0792 1.3275-7.7265 3.509-1.056 0.49571-2.424 1.0828-3.04 1.3045-1.995 0.71828-13.457 6.3776-15.315 7.5619-0.99277 0.63271-2.6234 1.857-3.6237 2.7206-2.2528 1.9451-2.9936 3.7869-2.7302 6.7878 0.47385 5.3981 1.2689 10.015 1.9327 11.223 0.88899 1.618 3.1451 3.3193 5.7176 4.3113 5.2373 2.0197 6.6586 3.372 6.6586 6.3352l-1e-5 1.5264h90.72c49.896 0 90.72-0.0817 90.72-0.1815zm-99.68-40.985c-3.0252-0.2377-11.099-1.0243-18.001-1.7539-1.1008-0.11635-2.2498-0.39322-2.5534-0.6152-0.482-0.35245-0.37018-0.42819 0.88138-0.59696 0.78837-0.10634 3.5144-0.48762 6.0579-0.8473 5.33-0.75376 10.559-1.3658 16.538-1.9358 4.9318-0.47018 6.2309-0.18893 7.259 1.5714 0.91217 1.5619 0.54117 2.9174-1.0466 3.8237-1.4028 0.80077-2.7724 0.85386-9.1345 0.35399zm-71.01-104.02c0.51695-0.99357 0.5961-2.6876 0.13877-2.9702-0.35826-0.22141-2.2492 3.7588-2.2492 4.7344 0 0.62345 0.0358 0.61808 0.8304-0.12426 0.45672-0.42669 1.0327-1.1646 1.28-1.6399zm-7.7692 1.4091c0.28621-0.31626 1.2241-1.8643 2.0841-3.44 4.0718-7.4601 5.4531-9.6861 7.8341-12.625 2.9242-3.6093 5.372-5.6077 9.0979-7.4276 2.7203-1.3287 4.0772-1.7609 7.9288-2.5256 3.7696-0.74844 7.1083-1.8528 8.0717-2.6699 0.23122-0.1961-3.6187-9.8539-4.8412-12.145-0.46016-0.86221-0.83665-1.7537-0.83665-1.9811 0-1.3699-2.0089-0.55869-2.8891 1.1666-0.752 1.474-0.70233 3.3476 0.21132 7.9719 0.44604 2.2576 0.39295 3.8505-0.12832 3.8501-0.47672-3.2e-4 -3.07-3.3165-3.4708-4.4384-0.22825-0.63879-0.42352-2.0254-0.43394-3.0814-0.0228-2.3118-0.31124-2.9173-1.1663-2.4483-0.33158 0.18191-1.4669 0.57776-2.5229 0.87968s-2.0378 0.65132-2.1817 0.77645c-0.2342 0.20361 0.17215 2.6041 1.055 6.2321 0.45558 1.8722 0.40057 4.1804-0.10971 4.6038-0.34322 0.28485-0.71147 0.0639-1.724-1.0346-1.8275-1.9826-2.0435-2.5164-2.3073-5.7008-0.12929-1.5608-0.29664-2.8994-0.37188-2.9747-0.0753-0.0752-1.2851 0.2658-2.6886 0.75788l-2.5518 0.89469 0.0942 1.4069c0.0518 0.77378 0.37582 2.5109 0.72 3.8602 0.75806 2.9719 0.7816 4.081 0.11964 5.637l-0.50613 1.1897-2.8649-3.2 0.0986-4.6314c0.0921-4.3245 0.0586-4.6394-0.50478-4.7518-0.49634-0.0991-0.57518 0.0271-0.44438 0.71138 0.19389 1.0143-0.67932 1.1868-0.94105 0.18596-0.14766-0.56467-0.35511-0.62397-1.65-0.47173-0.81463 0.0958-3.2768 0.38641-5.4716 0.64586-2.1947 0.25946-4.1375 0.47174-4.3172 0.47174-0.49593 0 4.8264-3.4927 6.8494-4.4947 0.97803-0.48447 3.4342-1.4163 5.4582-2.0707 4.1074-1.328 10.004-4.0064 12.368-5.6175 2.052-1.3988 3.9394-2.9577 3.9465-3.2598 3e-3 -0.13352-0.34457-0.63752-0.77276-1.12-1.4889-1.6776-2.5031-3.4316-2.6598-4.5998-0.10562-0.78747-0.62026-1.7041-1.5597-2.778-1.8263-2.0877-1.7806-2.5644 0.11797-1.2301 0.836 0.58759 2.384 1.3707 3.44 1.7403 2.6566 0.92973 8.8872 2.8241 11.2 3.4054 1.056 0.26538 2.712 0.82385 3.68 1.241 4.9861 2.149 5.402 2.4639 3.2533 2.4639-0.67467 0-1.309 0.0823-1.4096 0.18289-0.1006 0.1006 0.5594 0.94172 1.4667 1.8692 0.90726 0.92744 2.7117 2.7822 4.01 4.1216 2.6822 2.7674 5.6885 4.8983 9.6471 6.8379 3.4736 1.702 8.2296 2.967 10.353 2.7535 0.85814-0.0863 2.9461 0.0215 4.64 0.23956 2.4686 0.31773 3.429 0.60369 4.8398 1.4411 0.968 0.57459 3.344 1.8736 5.28 2.8866 1.936 1.0131 4.3766 2.3967 5.4236 3.0748 1.047 0.67805 2.0895 1.2328 2.3166 1.2328 0.22716 0 1.3145-0.35352 2.4164-0.7856 4.1877-1.6422 6.8692-2.0725 10.366-1.6637 4.0798 0.4769 9.1096-0.88101 17.557-4.7399 1.8016-0.823 4.3934-2.048 10.08-4.7644 4.3186-2.0629 11.026-5.6791 11.698-6.3071 0.49024-0.45787 0.75076-0.52228 1.0207-0.25234 0.26992 0.26993 0.60742 0.15631 1.3222-0.44514 0.52787-0.44417 2.0125-1.1258 3.2993-1.5146 2.6206-0.79196 5.6997-2.52 6.4297-3.6085 0.26509-0.39526 0.94355-1.2226 1.5077-1.8386 0.56413-0.616 2.1127-2.7597 3.4412-4.7638 2.7866-4.2035 3.8652-5.3443 8.2984-8.7768 3.8693-2.9959 4.6762-3.8138 4.5287-4.5908-0.27062-1.4259-3.7866-0.61334-6.8535 1.5839-2.8752 2.0599-5.9093 3.8377-6.1459 3.601-0.40009-0.40009 1.6864-3.8339 3.5218-5.7959 1.011-1.0808 3.2289-2.9509 4.9287-4.1558 2.9977-2.1249 4.279-3.5351 4.2815-4.7119 3e-3 -1.1859-1.0691-1.0097-4.3098 0.70868-4.5748 2.4258-8.4035 4.9767-10.205 6.7993-1.7601 1.7809-3.0843 2.742-3.0843 2.2385 0-0.18542 0.84432-1.462 1.8763-2.8368s2.1041-2.9453 2.3825-3.49c0.52179-1.0208 5.4867-5.8897 6.0057-5.8897 0.16029 0 0.72419-0.59742 1.2532-1.3276 0.73898-1.0201 0.87856-1.4277 0.60282-1.76-0.60218-0.72558-1.6363-0.49595-4.6207 1.026-4.2218 2.153-6.6008 4.2993-10.51 9.4818-2.1515 2.8524-4.0792 4.7397-4.8411 4.7397-0.58208 0-0.63552 0.32501 0.49113-2.9875 2.7718-8.1494-0.90835-9.8025-3.8748-1.7405-0.53587 1.4564-1.272 3.4399-1.6359 4.4079-0.56288 1.4974-0.65466 2.418-0.61504 6.1699 0.0415 3.9315-0.0141 4.4332-0.51386 4.6253-0.48278 0.18556-0.45808 0.23959 0.17846 0.39012 1.277 0.30198 0.92432 0.7968-0.73888 1.0368-0.88 0.127-2.693 0.58804-4.029 1.0245-5.6405 1.8429-12.509 2.297-24.931 1.6482-6.5343-0.3413-9.678 0.32597-15.92 3.379-1.8038 0.88233-3.4238 1.5152-3.6 1.4063-0.54135-0.33458-0.3553-0.80016 0.31975-0.80016 0.84001 0 0.85375-1.2081 0.032-2.8128-0.68952-1.3464-3.9689-5.1566-5.3529-6.2194-0.50548-0.38816-0.99106-0.79893-1.0791-0.91283-0.65332-0.84553-6.3255-4.0131-9.1811-5.1271-1.4325-0.55882-7.1333-1.5157-7.3116-1.2273-0.0891 0.14418-0.0398 1.0416 0.10962 1.9943 0.27604 1.7603-9e-3 3.2964-0.54899 2.9624-0.16363-0.10112-0.54739-0.86637-0.8528-1.7006-2.0171-5.5094-4.262-10.341-5.9353-12.774-2.0881-3.0366-6.604-6.771-10.68-8.8316-1.619-0.81851-5.6852-3.5162-7.1309-4.731-0.22601-0.18991-1.054-0.62975-1.84-0.97743-1.8811-0.83211-1.877-1.382 8e-3 -1.0993 0.79055 0.11855 2.4106 0.32987 3.6 0.46961 1.1894 0.13973 2.3944 0.35473 2.6777 0.47777 0.42176 0.18319 0.58362-0.12499 0.89385-1.7018 0.52743-2.6809 1.2881-5.1484 1.587-5.1484 0.13811 0 0.40556 0.828 0.59433 1.84 0.18876 1.012 0.58598 2.6735 0.88271 3.6921 0.49872 1.7121 0.71689 1.9856 2.886 3.6183 1.2906 0.97138 2.4355 1.998 2.5443 2.2814 0.13132 0.34222 0.30477 0.40817 0.51654 0.19639 0.21177-0.21176 0.20314-1.3311-0.0257-3.3335-0.46735-4.0895-0.12254-9.8275 0.73882-12.295 0.78767-2.2561 2.0985-4.389 2.5964-4.2247 0.21217 0.07 0.41391 1.4962 0.51071 3.6102 0.1533 3.3483 0.20804 3.5681 1.3085 5.2545 0.97781 1.4984 5.6241 6.08 6.1658 6.08 0.0983 0 1.4447 1.0232 2.9921 2.2738 2.8215 2.2802 7.4451 4.7662 8.8647 4.7662 0.40331 0 1.1789-0.15535 1.7236-0.34522 0.8714-0.30378 1.035-0.56052 1.3626-2.1384 0.20474-0.98624 1.2365-3.5948 2.2928-5.7968 1.0563-2.202 2.0139-4.6597 2.128-5.4616l0.20742-1.458 2.8772-0.16c2.8319-0.15749 2.8763-0.1726 2.8211-0.96-0.0309-0.44-0.30888-3.2776-0.61784-6.3058-0.60949-5.9739-0.65374-5.6455 1.1339-8.4142 0.91802-1.4218 0.93005-1.5009 0.95489-6.2733 0.0245-4.7035 4e-3 -4.856-0.75956-5.68-0.4316-0.4657-1.0264-0.84672-1.3218-0.84672-0.29537 0-2.4667-0.648-4.8251-1.44s-4.7226-1.44-5.2535-1.44c-1.2333 0-2.4532 1.2759-2.7146 2.839-0.10678 0.63856-0.33431 1.6204-0.50565 2.1818-0.17132 0.5614-0.28614 1.2094-0.25514 1.44 0.12944 0.96276-0.11313 1.2254-2.0194 2.187-1.1 0.55483-2.3992 1.3861-2.8871 1.8472-0.75163 0.71038-2.6721 3.6494-3.0745 4.7051-0.36628 0.96093-1.181 1.44-2.4489 1.44-1.6188 0-2.0451-0.43287-2.2552-2.2899-0.28681-2.5342-1.0543-4.5629-2.1906-5.7901-0.97286-1.0507-1.2937-1.2-2.5787-1.2-0.80716 0-1.8135 0.22668-2.2364 0.50374-2.1604 1.4156-3.0187 6.3242-1.7739 10.145 0.9978 3.063 0.87207 3.2372-2.1604 2.9942-1.3609-0.10908-3.7308-0.0759-5.2664 0.0737l-2.792 0.272-3.0037 2.8715c-1.652 1.5794-3.6713 3.2918-4.4873 3.8055-0.816 0.51368-2.168 1.3699-3.0043 1.9028s-2.4567 1.28-3.6007 1.6604c-1.144 0.38041-2.656 0.97234-3.36 1.3154-0.704 0.34306-2.864 1.1484-4.8 1.7896-1.936 0.64124-3.9738 1.3774-4.5284 1.6358-0.55459 0.25845-1.1563 0.46991-1.3371 0.46991s-0.51907 0.18423-0.75164 0.40941-1.1066 0.83718-1.9423 1.36c-2.3904 1.4955-2.1019 1.6755 1.7322 1.0806 1.5049-0.23349 2.3619-0.24336 2.5756-0.0296 0.42863 0.42863-0.40952 0.84695-2.6284 1.3119-1.4366 0.30099-3.7411 1.2402-6.2814 2.56-1.8136 0.94221-5.4713 3.7084-7.1806 5.4302-1.6627 1.6749-6.698 8.5564-6.698 9.1537 0 0.0724-0.41675 0.7509-0.9261 1.5077-1.4628 2.1735-3.3802 6.2165-4.5985 9.696-2.2648 6.4686-4.9534 15.352-5.6657 18.72-0.20472 0.968-0.71366 3.272-1.131 5.12s-0.87591 4.008-1.0191 4.8c-0.20805 1.1506-0.40446 1.4605-0.9773 1.5419-0.88052 0.12515-2.2654 1.4804-3.942 3.8576-0.6984 0.99025-1.7694 2.4485-2.38 3.2405-1.5553 2.0174-2.776 4.4092-2.6592 5.2104 0.0543 0.37264 0.81879 1.2338 1.6988 1.9138 1.7282 1.3353 5.9699 4.5375 8.8 6.6435 0.968 0.72029 4.0506 3.0293 6.8503 5.131s5.2752 3.8214 5.5011 3.8214c0.64758 0 0.78778-0.44988 1.1096-3.5605 0.16606-1.6052 0.53117-3.8007 0.81134-4.8789 0.49409-1.9016 0.48174-3.282-0.0648-7.2405l-0.19882-1.44 1.3262 2.4c2.9201 5.2845 2.7518 4.5677 2.6873 11.44-0.0605 6.446 0.0527 6.9401 1.279 5.585zm88.033-32.185c-1.5982-0.22834-3.0766-0.52068-3.2852-0.64962-0.49978-0.30888-0.15321-0.85016 0.40676-0.63528 0.40288 0.1546 12.527-1.0946 17.583-1.8118 3.9489-0.56004 7.6224-1.6197 12.942-3.7334 2.8716-1.1409 5.2852-2.0102 5.3636-1.9318 0.23293 0.23296-5.8335 3.2674-9.6246 4.8143-1.936 0.78993-5.9173 2.0266-8.8473 2.7482-6.1783 1.5216-10.049 1.8409-14.539 1.1994zm4.7522-6.2971c-1.5448-0.3049-4.0707-1.3597-4.3542-1.8183-0.11567-0.18715 1.3445-0.38899 3.7187-0.51404 5.0243-0.26463 13.822-2.1698 17.913-3.8791 2.2794-0.95239 6.001-2.0224 6.1568-1.7702 0.0864 0.13979-0.8864 0.89485-2.1618 1.6779-9.0333 5.5463-15.46 7.4509-21.273 6.3038zm-35.446-1.7011c-1.408-0.39352-3.1974-1.0478-3.9765-1.4539-1.7614-0.9182-4.4324-3.4196-6.29-5.8908-1.4982-1.9931-1.6057-3.0404-0.17841-1.7391 1.2277 1.1194 3.8704 2.7125 5.3873 3.2477 3.1434 1.1091 9.7708 1.3576 13.663 0.51239 1.1472-0.2491 1.3878-0.16763 3.04 1.0293 2.2537 1.6326 4.8547 4.1207 4.6515 4.4494-0.0847 0.13699-0.7443 0.0408-1.4659-0.21381-1.6573-0.58473-3.787-0.588-6.5705-0.0101-3.9924 0.82888-5.4966 0.84141-8.2609 0.0688zm16-13.622c-1.232-0.48226-3.4146-1.4759-4.8502-2.208-1.4356-0.73215-2.6913-1.3312-2.7905-1.3312s-0.9674-0.36-1.9293-0.8c-0.96193-0.44-1.9022-0.8-2.0895-0.8-0.68509 0-0.31398-0.63728 0.66631-1.1442 0.86712-0.44841 1.276-0.46768 2.9472-0.13889 2.772 0.54536 5.2397 1.9038 8.1926 4.5101 2.3098 2.0387 3.0341 2.9144 2.3334 2.821-0.132-0.0176-1.248-0.42656-2.48-0.90881zm-72.903-5.3899c-1.908-4.2517-2.2823-8.7258-1.0945-13.085 0.87062-3.195 3.8254-6.1232 8.318-8.2431 3.0454-1.4371 3.22-0.99284 0.68428 1.7418-4.7684 5.1426-5.5524 7.0816-5.5904 13.826-0.0254 4.5144-0.44182 7.2944-1.1258 7.5168-0.19337 0.0629-0.72957-0.72797-1.1916-1.7574zm36.903 0.66011c-1.2872-0.14727-4.373-1.067-6.2328-1.8577-3.5683-1.5171-7.541-5.4404-9.1174-9.004-0.74387-1.6817-0.79406-2.4515-0.29024-4.4523 0.29154-1.1578 0.44292-1.3589 0.8-1.0625 0.24223 0.20103 0.44042 0.55445 0.44042 0.78536 0 0.61067 3.5056 4.9257 5.1344 6.3199 2.525 2.1613 6.3449 4.0267 10.066 4.9153 1.056 0.25222 4.761 0.65856 8.2334 0.90299 6.0726 0.42747 8.2134 0.81328 6.7787 1.2216-0.33667 0.0958-1.1161 0.27359-1.7321 0.39505s-1.48 0.41342-1.92 0.64878c-2.0886 1.1172-7.8537 1.6803-12.16 1.1876zm10.213-17.614c-0.42521-0.48657-1.178-1.4247-1.6729-2.0848-1.3555-1.808-3.9399-3.603-6.6202-4.5981-2.3044-0.85557-2.6342-0.89101-8.2806-0.88992l-5.8806 1e-3 1.0738-0.89643c1.9701-1.6447 4.2008-2.2517 7.6853-2.091 2.7541 0.12697 3.3432 0.26982 5.6 1.3579 3.2385 1.5614 5.0371 3.0265 6.238 5.0811 0.52856 0.90437 1.4014 2.3356 1.9396 3.1806 1.1135 1.748 1.0689 2.2569-0.0824 0.93951zm286.65 66.244c-0.38781-16.71-2.198-26.48-8.1376-43.92-2.043-5.9988-7.1362-16.776-10.283-21.76-4.8156-7.6262-5.1882-8.15-10.359-14.56-0.70985-0.88-4.0571-4.336-7.4383-7.68-5.8306-5.7664-12.243-11.006-16.09-13.147-0.65942-0.36706-2.6373-1.5355-4.3953-2.5966-7.9292-4.7858-20.341-10.262-27.066-11.943-12.941-3.2333-20.684-4.1901-32.291-3.9902-8.2897 0.14281-10.685 0.33615-10.375 0.83752 0.0949 0.15353 0.75818 0.27916 1.474 0.27916 1.7161 0 12.144 1.6575 16.181 2.5719 3.687 0.83519 4.4483 1.0275 5.04 1.2728 0.352 0.14599 1.072 0.3545 1.6 0.46336 1.5404 0.31758 7.8765 2.3989 9.3565 3.0736 0.74608 0.34008 1.4661 0.61902 1.6 0.61989 0.13392 9.6e-4 2.1875 0.80232 4.5635 1.781s4.752 1.9344 5.28 2.1237 1.1873 0.5399 1.4652 0.77898c0.27785 0.23908 0.61433 0.43469 0.74771 0.43469 0.78889 0 11.573 6.4492 16.987 10.159 9.6163 6.5887 20.469 16.354 27.828 25.041 8.6907 10.259 16.228 22.39 21.869 35.2 5.122 11.63 9.4904 26.372 11.158 37.653 0.47693 3.2266 1.0059 5.8666 1.1754 5.8666 0.19497 0 0.23526-3.1461 0.1096-8.56zm-207.98 3.9078c1.703-0.71155 2.3214-1.3876 2.3214-2.5375 0-1.1069-1.1983-2.4884-2.5-2.8822-1.5496-0.46877-47.883 2.4066-48.485 3.009-0.32281 0.32281 1.5548 0.50739 11.785 1.1586 14.938 0.95088 21.742 1.2888 34.01 1.6892 0.92966 0.0304 2.2204-0.16634 2.8683-0.43703zm-110.16-2.8989c1.4253-0.52025 2.2191-1.1231 3.2844-2.4942 0.56894-0.73226 0.63997-1.0203 0.34055-1.3811-0.53002-0.63863-2.0296-1.3737-2.8025-1.3737-1.0292 0-4.8155 4.4371-4.8208 5.6495-2e-3 0.46918 2.2276 0.24579 3.9984-0.40061zm11.016-8.8338c2.4856-1.7344 2.5354-2.1606 0.18302-1.5682-0.77129 0.1942-2.1409 0.35312-3.0437 0.35312-1.1894 0-2.0315 0.22864-3.0583 0.8304-0.77934 0.45673-1.417 0.94515-1.417 1.0854 0 0.28637 2.5313 0.87037 4 0.92288 0.67291 0.024 1.6705-0.46144 3.3359-1.6235zm-103.66-4.9072c-2.552-0.22524-6.584-0.57804-8.96-0.78396-4.6433-0.40247-11.652-1.185-13.384-1.4942-0.61486-0.10981-0.9447-0.30921-0.78149-0.47242 0.27006-0.27006 6.9013-1.0752 15.445-1.8753 2.2-0.20602 4.36-0.42482 4.8-0.48621 0.96531-0.13469 6.8972-0.69186 10.298-0.96731 1.9672-0.15931 2.6912-0.0886 3.624 0.35402 2.4627 1.1686 2.9059 3.4142 1.0157 5.1465-1.1672 1.0697-1.1723 1.0709-4.2933 1.0297-1.7186-0.0227-5.2127-0.22554-7.7647-0.45079zm18.08-18.871c-3.872-0.21722-9.488-0.48937-12.48-0.60477-5.1186-0.19744-7.5161-0.31886-13.28-0.67258-1.32-0.081-4.272-0.23109-6.56-0.33353-2.288-0.10243-6.464-0.31744-9.28-0.47779-21.478-1.223-25.061-1.5484-22.24-2.0195 1.011-0.16883 12.473-0.99038 25.12-1.8005 2.64-0.16912 6.744-0.45563 9.12-0.6367s8.784-0.61198 14.24-0.95758c5.456-0.34559 12.728-0.8083 16.16-1.0282 3.432-0.21994 7.032-0.39518 8-0.38942 3.2807 0.0195 5.1166 1.7412 5.1188 4.8005 2e-3 1.975-0.67347 2.973-2.6611 3.9352-1.5473 0.74903-1.2794 0.74463-11.258 0.18486z" fill="#243e51" stroke-width=".32"/>
  </g>
 </g>
</svg>
